%TF.GenerationSoftware,Altium Limited,Altium Designer,20.0.13 (296)*%
G04 Layer_Color=255*
%FSLAX45Y45*%
%MOMM*%
%TF.FileFunction,Pads,Bot*%
%TF.Part,Single*%
G01*
G75*
%TA.AperFunction,ComponentPad*%
%ADD37C,2.27000*%
%ADD38R,2.27000X2.27000*%
%ADD39C,1.30000*%
%ADD40C,3.50000*%
%ADD41R,1.95000X1.95000*%
%ADD42C,1.95000*%
%ADD43C,1.52400*%
%ADD44R,1.50000X1.50000*%
%ADD45C,1.50000*%
%ADD46R,1.50000X1.50000*%
%ADD47C,1.40000*%
%ADD48C,1.65000*%
%ADD49O,1.52400X3.04800*%
D37*
X9875000Y-360000D02*
D03*
X9125000D02*
D03*
X8375000D02*
D03*
D38*
X7375000D02*
D03*
D39*
X7250000Y-4025000D02*
D03*
Y-4225000D02*
D03*
X6425000Y-4050000D02*
D03*
Y-4250000D02*
D03*
D40*
X19650000Y-350000D02*
D03*
Y-9850000D02*
D03*
X350000Y-350000D02*
D03*
Y-9850000D02*
D03*
D41*
X725000Y-1150000D02*
D03*
X750000Y-8467000D02*
D03*
D42*
X725000Y-1658000D02*
D03*
X750000Y-8975000D02*
D03*
D43*
X2179000Y-1575000D02*
D03*
X1671000D02*
D03*
D44*
X10125000Y-1225000D02*
D03*
D45*
Y-1025000D02*
D03*
X8150000Y-1400000D02*
D03*
D46*
X7950000D02*
D03*
D47*
X15425000Y-525000D02*
D03*
Y-1025000D02*
D03*
Y-1525000D02*
D03*
Y-2025000D02*
D03*
Y-2525000D02*
D03*
Y-3025000D02*
D03*
X17925000Y-525000D02*
D03*
Y-1025000D02*
D03*
Y-1525000D02*
D03*
Y-2025000D02*
D03*
Y-2525000D02*
D03*
Y-3025000D02*
D03*
D48*
X2425000Y-700000D02*
D03*
X3425000D02*
D03*
Y-250000D02*
D03*
X2425000D02*
D03*
X5875000Y-1345000D02*
D03*
X5125000D02*
D03*
Y-275000D02*
D03*
X5875000D02*
D03*
D49*
X14133000Y-425000D02*
D03*
X13878999D02*
D03*
X13625000D02*
D03*
%TF.MD5,55a1e713be47720bee3cb8132da95ff7*%
M02*
