%TF.GenerationSoftware,Altium Limited,Altium Designer,20.0.13 (296)*%
G04 Layer_Color=0*
%FSLAX45Y45*%
%MOMM*%
%TF.FileFunction,Plated,1,2,PTH,Drill*%
%TF.Part,Single*%
G01*
G75*
%TA.AperFunction,ComponentDrill*%
%ADD113C,1.51000*%
%ADD114C,0.80000*%
%ADD115C,1.30000*%
%ADD116C,0.76200*%
%ADD117C,0.85000*%
%ADD118C,0.85000*%
%ADD119C,0.70000*%
%ADD120C,0.60000*%
%ADD121C,1.10000*%
%ADD122C,1.10000*%
%TA.AperFunction,ViaDrill,NotFilled*%
%ADD123C,0.10000*%
%ADD124C,0.25400*%
D113*
X9875000Y-360000D02*
D03*
X9125000D02*
D03*
X8375000D02*
D03*
X7375000D02*
D03*
D114*
X7250000Y-4025000D02*
D03*
Y-4225000D02*
D03*
X6425000Y-4050000D02*
D03*
Y-4250000D02*
D03*
D115*
X725000Y-1150000D02*
D03*
Y-1658000D02*
D03*
X750000Y-8467000D02*
D03*
Y-8975000D02*
D03*
D116*
X2179000Y-1575000D02*
D03*
X1671000D02*
D03*
D117*
X10125000Y-1225000D02*
D03*
Y-1025000D02*
D03*
D118*
X7950000Y-1400000D02*
D03*
X8150000D02*
D03*
D119*
X15425000Y-525000D02*
D03*
D120*
Y-1025000D02*
D03*
Y-1525000D02*
D03*
Y-2025000D02*
D03*
Y-2525000D02*
D03*
Y-3025000D02*
D03*
X17925000Y-525000D02*
D03*
Y-1025000D02*
D03*
Y-1525000D02*
D03*
Y-2025000D02*
D03*
Y-2525000D02*
D03*
Y-3025000D02*
D03*
D121*
X2425000Y-700000D02*
D03*
X3425000D02*
D03*
Y-250000D02*
D03*
X2425000D02*
D03*
X5875000Y-1345000D02*
D03*
X5125000D02*
D03*
Y-275000D02*
D03*
X5875000D02*
D03*
D122*
X14133000Y-425000D02*
D03*
X13878999D02*
D03*
X13625000D02*
D03*
D123*
X19220001Y-2192500D02*
D03*
Y-5192500D02*
D03*
Y-8192500D02*
D03*
X17720001Y-2192500D02*
D03*
Y-5192500D02*
D03*
X16220001Y-2192500D02*
D03*
X15470001Y-3692500D02*
D03*
X16220001Y-5192500D02*
D03*
X14720001D02*
D03*
X13970001Y-9692500D02*
D03*
X13220000Y-5192500D02*
D03*
X12470000Y-9692500D02*
D03*
X11720000Y-5192500D02*
D03*
X10970000Y-6692500D02*
D03*
Y-9692500D02*
D03*
X10220000Y-2192500D02*
D03*
X9470000Y-3692500D02*
D03*
X10220000Y-5192500D02*
D03*
X9470000Y-6692500D02*
D03*
Y-9692500D02*
D03*
X8720000Y-2192500D02*
D03*
X7970000Y-3692500D02*
D03*
X8720000Y-5192500D02*
D03*
X7970000Y-6692500D02*
D03*
Y-9692500D02*
D03*
X7220000Y-2192500D02*
D03*
X6470000Y-3692500D02*
D03*
X7220000Y-5192500D02*
D03*
X6470000Y-6692500D02*
D03*
Y-9692500D02*
D03*
X5720000Y-2192500D02*
D03*
Y-5192500D02*
D03*
X4970000Y-9692500D02*
D03*
X4220000Y-2192500D02*
D03*
Y-5192500D02*
D03*
X3470000Y-9692500D02*
D03*
X2720000Y-2192500D02*
D03*
X1970000Y-6692500D02*
D03*
Y-9692500D02*
D03*
X1220000Y-2192500D02*
D03*
Y-5192500D02*
D03*
X470000Y-6692500D02*
D03*
X1220000Y-8192500D02*
D03*
D124*
X11975000Y-3125000D02*
D03*
X12000000Y-3100000D02*
D03*
X2895608Y-6087724D02*
D03*
X6107204Y-6331801D02*
D03*
X4400206Y-6293301D02*
D03*
X4307204Y-6031801D02*
D03*
X2975000Y-6000000D02*
D03*
Y-5525000D02*
D03*
X3295608Y-5037725D02*
D03*
X3320608Y-4712725D02*
D03*
X2345608Y-3437725D02*
D03*
X2270608Y-5312724D02*
D03*
X2625000Y-6062700D02*
D03*
X2645608Y-6537725D02*
D03*
X4995608Y-5712725D02*
D03*
X4445608Y-5862725D02*
D03*
X10745608Y-1212725D02*
D03*
X10720608Y-1237725D02*
D03*
X9570002Y-3802002D02*
D03*
X12145608Y-3862725D02*
D03*
X12140606Y-3887725D02*
D03*
X12170608Y-3562725D02*
D03*
X12145608D02*
D03*
X11045608Y-1162725D02*
D03*
X10345608Y-3987725D02*
D03*
X11095608Y-3587725D02*
D03*
X11220608Y-3012725D02*
D03*
X12205608Y-1912724D02*
D03*
X12170608Y-1912725D02*
D03*
X12195608Y-2787725D02*
D03*
X12170608D02*
D03*
X12595608Y-3137725D02*
D03*
X12570608Y-3162725D02*
D03*
X12825000Y-3100000D02*
D03*
X13120609Y-3712725D02*
D03*
X13095609D02*
D03*
X12845609Y-3662725D02*
D03*
X13695609Y-3287725D02*
D03*
X14010614Y-3257726D02*
D03*
X13195609Y-3437725D02*
D03*
X13670609Y-3312725D02*
D03*
X12795608Y-3112725D02*
D03*
X11245608Y-3012724D02*
D03*
X13145609Y-2162725D02*
D03*
X3832205Y-5681801D02*
D03*
X1895608Y-6287725D02*
D03*
X1770608Y-6637725D02*
D03*
X1620608Y-7262725D02*
D03*
X2225000Y-5675000D02*
D03*
X2725000Y-5100000D02*
D03*
X2525000Y-5150000D02*
D03*
X1570608Y-5412725D02*
D03*
X12439998Y-825000D02*
D03*
X11105614Y-3545227D02*
D03*
X10349999Y-4024999D02*
D03*
X3795608Y-7712724D02*
D03*
X3570608Y-6637725D02*
D03*
X2695608Y-5738198D02*
D03*
X3700000Y-2975000D02*
D03*
X2876601Y-5803201D02*
D03*
X2799991Y-5499991D02*
D03*
%TF.MD5,427bf180e17594d2ae9dc3be7bcdb8e6*%
M02*
