%TF.GenerationSoftware,Altium Limited,Altium Designer,20.0.13 (296)*%
G04 Layer_Color=65535*
%FSLAX45Y45*%
%MOMM*%
%TF.FileFunction,Legend,Top*%
%TF.Part,Single*%
G01*
G75*
%TA.AperFunction,NonConductor*%
%ADD67C,0.25000*%
%ADD68C,0.20000*%
%ADD69C,0.10000*%
%ADD70C,0.25400*%
%ADD71C,0.50000*%
%ADD72C,0.12700*%
%ADD73C,0.05000*%
%ADD74C,0.15000*%
%ADD75C,0.15240*%
%ADD76C,0.08000*%
%ADD77R,5.50000X1.70000*%
%ADD78R,5.50000X1.70000*%
%ADD79R,5.50000X1.70000*%
%ADD80R,5.50000X1.70000*%
%ADD81R,1.70000X5.50000*%
G36*
X1585000Y-6210968D02*
X1580433Y-6221994D01*
X1571994Y-6230433D01*
X1560967Y-6235000D01*
X1555000D01*
Y-6205000D01*
X1585000D01*
Y-6210968D01*
D02*
G37*
G36*
X4435000Y-6235967D02*
X4430433Y-6246994D01*
X4421993Y-6255433D01*
X4410967Y-6260000D01*
X4405000D01*
Y-6230000D01*
X4435000D01*
Y-6235967D01*
D02*
G37*
G36*
X1585000Y-6835968D02*
X1580433Y-6846994D01*
X1571994Y-6855433D01*
X1560967Y-6860000D01*
X1555000D01*
Y-6830000D01*
X1585000D01*
Y-6835968D01*
D02*
G37*
G36*
X4435000Y-6885967D02*
X4430433Y-6896994D01*
X4421993Y-6905433D01*
X4410967Y-6910000D01*
X4405000D01*
Y-6880000D01*
X4435000D01*
Y-6885967D01*
D02*
G37*
G36*
X5965030Y-9540001D02*
D01*
D02*
G37*
G36*
X6185030D02*
D01*
D02*
G37*
G36*
X7515027D02*
D01*
D02*
G37*
G36*
X7735027D02*
D01*
D02*
G37*
G36*
X6015033Y-6534999D02*
D01*
D02*
G37*
G36*
X6235034D02*
D01*
D02*
G37*
G36*
X7565030D02*
D01*
D02*
G37*
G36*
X7785030D02*
D01*
D02*
G37*
G36*
X9065024Y-9540001D02*
D01*
D02*
G37*
G36*
X9285024D02*
D01*
D02*
G37*
G36*
X10615021D02*
D01*
D02*
G37*
G36*
X10835021D02*
D01*
D02*
G37*
G36*
X9139961Y-6509999D02*
D01*
D02*
G37*
G36*
X9359961D02*
D01*
D02*
G37*
G36*
X10689958D02*
D01*
D02*
G37*
G36*
X14412399Y-247200D02*
Y-298000D01*
X14221899D01*
Y-247200D01*
X14044099D01*
Y-298000D01*
X13967900D01*
Y-247200D01*
X13790100D01*
Y-298000D01*
X13713901D01*
Y-247200D01*
X13536099D01*
Y-298000D01*
X13345599D01*
Y-247200D01*
Y-171000D01*
X14412399D01*
Y-247200D01*
D02*
G37*
D67*
X14812500Y-2375000D02*
G03*
X14812500Y-2375000I-12500J0D01*
G01*
X3115500Y-5406500D02*
G03*
X3115500Y-5406500I-12500J0D01*
G01*
X9491400Y-3421000D02*
G03*
X9491400Y-3421000I-12500J0D01*
G01*
D68*
X7365000Y-560000D02*
G03*
X7365000Y-560000I-10000J0D01*
G01*
X7525000Y-4125000D02*
G03*
X7525000Y-4125000I-275000J0D01*
G01*
X6700000Y-4150000D02*
G03*
X6700000Y-4150000I-275000J0D01*
G01*
X1555000Y-6860000D02*
G03*
X1585000Y-6830000I0J30000D01*
G01*
X1555000Y-6235000D02*
G03*
X1585000Y-6205000I0J30000D01*
G01*
X4405000Y-6260000D02*
G03*
X4435000Y-6230000I0J30000D01*
G01*
X4405000Y-6910000D02*
G03*
X4435000Y-6880000I0J30000D01*
G01*
X10375000Y-1125000D02*
G03*
X10375000Y-1125000I-250000J0D01*
G01*
X8300000Y-1400000D02*
G03*
X8300000Y-1400000I-250000J0D01*
G01*
X16550000Y-275000D02*
G03*
X16800000Y-275000I125000J0D01*
G01*
X14900000Y-2500000D02*
Y-1350000D01*
X13100000D02*
X14900000D01*
X13100000Y-2500000D02*
Y-1350000D01*
Y-2500000D02*
X14900000D01*
X3215000Y-6105000D02*
X3585000D01*
X3215000Y-5445000D02*
X3585000D01*
X18710001Y-9925000D02*
X19250000Y-9925000D01*
X18950000Y-8375000D02*
X19250000Y-8675000D01*
Y-9925000D02*
Y-8675000D01*
X18700000Y-8375000D02*
X18950000D01*
X18150000D02*
X18400000D01*
X17850000Y-9925000D02*
Y-8675000D01*
X18150000Y-8375000D01*
X17850000Y-9925000D02*
X18389999Y-9925000D01*
X17060008Y-9920001D02*
X17600008Y-9920001D01*
X17300008Y-8370001D02*
X17600008Y-8670001D01*
Y-9920001D02*
Y-8670001D01*
X17050008Y-8370001D02*
X17300008D01*
X16500008D02*
X16750008D01*
X16200008Y-9920001D02*
Y-8670001D01*
X16500008Y-8370001D01*
X16200008Y-9920001D02*
X16740009Y-9920001D01*
X15510011D02*
X16050012Y-9920001D01*
X15750011Y-8370001D02*
X16050012Y-8670001D01*
Y-9920001D02*
Y-8670001D01*
X15500011Y-8370001D02*
X15750011D01*
X14950012D02*
X15200012D01*
X14650011Y-9920001D02*
Y-8670001D01*
X14950012Y-8370001D01*
X14650011Y-9920001D02*
X15190012Y-9920001D01*
X13985014D02*
X14525015Y-9920001D01*
X14225014Y-8370001D02*
X14525015Y-8670001D01*
Y-9920001D02*
Y-8670001D01*
X13975014Y-8370001D02*
X14225014D01*
X13425015D02*
X13675015D01*
X13125014Y-9920001D02*
Y-8670001D01*
X13425015Y-8370001D01*
X13125014Y-9920001D02*
X13665015Y-9920001D01*
X12435018D02*
X12975018Y-9920001D01*
X12675018Y-8370001D02*
X12975018Y-8670001D01*
Y-9920001D02*
Y-8670001D01*
X12425018Y-8370001D02*
X12675018D01*
X11875018D02*
X12125018D01*
X11575017Y-9920001D02*
Y-8670001D01*
X11875018Y-8370001D01*
X11575017Y-9920001D02*
X12115018Y-9920001D01*
X10885021D02*
X11425021Y-9920001D01*
X11125021Y-8370001D02*
X11425021Y-8670001D01*
Y-9920001D02*
Y-8670001D01*
X10875021Y-8370001D02*
X11125021D01*
X10325021D02*
X10575021D01*
X10025021Y-9920001D02*
Y-8670001D01*
X10325021Y-8370001D01*
X10025021Y-9920001D02*
X10565021Y-9920001D01*
X9335024D02*
X9875024Y-9920001D01*
X9575024Y-8370001D02*
X9875024Y-8670001D01*
Y-9920001D02*
Y-8670001D01*
X9325024Y-8370001D02*
X9575024D01*
X8775024D02*
X9025024D01*
X8475024Y-9920001D02*
Y-8670001D01*
X8775024Y-8370001D01*
X8475024Y-9920001D02*
X9015024Y-9920001D01*
X7785027D02*
X8325027Y-9920001D01*
X8025027Y-8370001D02*
X8325027Y-8670001D01*
Y-9920001D02*
Y-8670001D01*
X7775027Y-8370001D02*
X8025027D01*
X7225027D02*
X7475027D01*
X6925027Y-9920001D02*
Y-8670001D01*
X7225027Y-8370001D01*
X6925027Y-9920001D02*
X7465027Y-9920001D01*
X6235030D02*
X6775030Y-9920001D01*
X6475030Y-8370001D02*
X6775030Y-8670001D01*
Y-9920001D02*
Y-8670001D01*
X6225030Y-8370001D02*
X6475030D01*
X5675030D02*
X5925030D01*
X5375030Y-9920001D02*
Y-8670001D01*
X5675030Y-8370001D01*
X5375030Y-9920001D02*
X5915030Y-9920001D01*
X4685033D02*
X5225033Y-9920001D01*
X4925033Y-8370001D02*
X5225033Y-8670001D01*
Y-9920001D02*
Y-8670001D01*
X4675033Y-8370001D02*
X4925033D01*
X4125033D02*
X4375033D01*
X3825033Y-9920001D02*
Y-8670001D01*
X4125033Y-8370001D01*
X3825033Y-9920001D02*
X4365033Y-9920001D01*
X3135036D02*
X3675036Y-9920001D01*
X3375036Y-8370001D02*
X3675036Y-8670001D01*
Y-9920001D02*
Y-8670001D01*
X3125036Y-8370001D02*
X3375036D01*
X2575036D02*
X2825036D01*
X2275036Y-9920001D02*
Y-8670001D01*
X2575036Y-8370001D01*
X2275036Y-9920001D02*
X2815036Y-9920001D01*
X8549961Y-6129999D02*
X9089961Y-6129999D01*
X8549961Y-7379999D02*
X8849961Y-7679999D01*
X8549961Y-7379999D02*
Y-6129999D01*
X8849961Y-7679999D02*
X9099961D01*
X9399961D02*
X9649961D01*
X9949961Y-7379999D02*
Y-6129999D01*
X9649961Y-7679999D02*
X9949961Y-7379999D01*
X9409961Y-6129999D02*
X9949961Y-6129999D01*
X10099957D02*
X10639958Y-6129999D01*
X10099957Y-7379999D02*
X10399958Y-7679999D01*
X10099957Y-7379999D02*
Y-6129999D01*
X10399958Y-7679999D02*
X10649958D01*
X10949958D02*
X11199958D01*
X11499958Y-7379999D02*
Y-6129999D01*
X11199958Y-7679999D02*
X11499958Y-7379999D01*
X10959958Y-6129999D02*
X11499958Y-6129999D01*
X11649954D02*
X12189955Y-6129999D01*
X11649954Y-7379999D02*
X11949955Y-7679999D01*
X11649954Y-7379999D02*
Y-6129999D01*
X11949955Y-7679999D02*
X12199955D01*
X12499954D02*
X12749954D01*
X13049956Y-7379999D02*
Y-6129999D01*
X12749954Y-7679999D02*
X13049956Y-7379999D01*
X12509954Y-6129999D02*
X13049956Y-6129999D01*
X13199951D02*
X13739951Y-6129999D01*
X13199951Y-7379999D02*
X13499951Y-7679999D01*
X13199951Y-7379999D02*
Y-6129999D01*
X13499951Y-7679999D02*
X13749951D01*
X14049951D02*
X14299951D01*
X14599951Y-7379999D02*
Y-6129999D01*
X14299951Y-7679999D02*
X14599951Y-7379999D01*
X14059950Y-6129999D02*
X14599951Y-6129999D01*
X14749948D02*
X15289948Y-6129999D01*
X14749948Y-7379999D02*
X15049948Y-7679999D01*
X14749948Y-7379999D02*
Y-6129999D01*
X15049948Y-7679999D02*
X15299948D01*
X15599948D02*
X15849948D01*
X16149948Y-7379999D02*
Y-6129999D01*
X15849948Y-7679999D02*
X16149948Y-7379999D01*
X15609949Y-6129999D02*
X16149948Y-6129999D01*
X16299945D02*
X16839944Y-6129999D01*
X16299945Y-7379999D02*
X16599945Y-7679999D01*
X16299945Y-7379999D02*
Y-6129999D01*
X16599945Y-7679999D02*
X16849945D01*
X17149945D02*
X17399945D01*
X17699945Y-7379999D02*
Y-6129999D01*
X17399945Y-7679999D02*
X17699945Y-7379999D01*
X17159946Y-6129999D02*
X17699945Y-6129999D01*
X17849942D02*
X18389941Y-6129999D01*
X17849942Y-7379999D02*
X18149942Y-7679999D01*
X17849942Y-7379999D02*
Y-6129999D01*
X18149942Y-7679999D02*
X18399942D01*
X18699942D02*
X18949942D01*
X19249942Y-7379999D02*
Y-6129999D01*
X18949942Y-7679999D02*
X19249942Y-7379999D01*
X18709943Y-6129999D02*
X19249942Y-6129999D01*
X154999Y-5249998D02*
X154999Y-4709998D01*
X1404999Y-5249998D02*
X1704999Y-4949998D01*
X154999Y-5249998D02*
X1404999D01*
X1704999Y-4949998D02*
Y-4699998D01*
Y-4399998D02*
Y-4149998D01*
X154999Y-3849998D02*
X1404999D01*
X1704999Y-4149998D01*
X154999Y-3849998D02*
X154999Y-4389998D01*
X5034988Y-4945001D02*
X5574989Y-4945001D01*
X5274988Y-3395001D02*
X5574989Y-3695001D01*
Y-4945001D02*
Y-3695001D01*
X5024988Y-3395001D02*
X5274988D01*
X4474989D02*
X4724989D01*
X4174988Y-4945001D02*
Y-3695001D01*
X4474989Y-3395001D01*
X4174988Y-4945001D02*
X4714989Y-4945001D01*
X3484992D02*
X4024992Y-4945001D01*
X3724992Y-3395001D02*
X4024992Y-3695001D01*
Y-4945001D02*
Y-3695001D01*
X3474992Y-3395001D02*
X3724992D01*
X2924992D02*
X3174992D01*
X2624991Y-4945001D02*
Y-3695001D01*
X2924992Y-3395001D01*
X2624991Y-4945001D02*
X3164992Y-4945001D01*
X5425033Y-6154999D02*
X5965034Y-6154999D01*
X5425033Y-7404999D02*
X5725034Y-7704999D01*
X5425033Y-7404999D02*
Y-6154999D01*
X5725034Y-7704999D02*
X5975034D01*
X6275033D02*
X6525033D01*
X6825034Y-7404999D02*
Y-6154999D01*
X6525033Y-7704999D02*
X6825034Y-7404999D01*
X6285033Y-6154999D02*
X6825034Y-6154999D01*
X6975030D02*
X7515030Y-6154999D01*
X6975030Y-7404999D02*
X7275030Y-7704999D01*
X6975030Y-7404999D02*
Y-6154999D01*
X7275030Y-7704999D02*
X7525030D01*
X7825030D02*
X8075030D01*
X8375030Y-7404999D02*
Y-6154999D01*
X8075030Y-7704999D02*
X8375030Y-7404999D01*
X7835030Y-6154999D02*
X8375030Y-6154999D01*
X18559973Y-5320001D02*
X19099973Y-5320001D01*
X18799973Y-3770001D02*
X19099973Y-4070001D01*
Y-5320001D02*
Y-4070001D01*
X18549973Y-3770001D02*
X18799973D01*
X17999973D02*
X18249973D01*
X17699973Y-5320001D02*
Y-4070001D01*
X17999973Y-3770001D01*
X17699973Y-5320001D02*
X18239973Y-5320001D01*
X17009976D02*
X17549976Y-5320001D01*
X17249976Y-3770001D02*
X17549976Y-4070001D01*
Y-5320001D02*
Y-4070001D01*
X16999976Y-3770001D02*
X17249976D01*
X16449976D02*
X16699976D01*
X16149976Y-5320001D02*
Y-4070001D01*
X16449976Y-3770001D01*
X16149976Y-5320001D02*
X16689977Y-5320001D01*
X11370000Y-605000D02*
X11410000D01*
Y-245000D01*
X11370000D02*
X11410000D01*
X10600000D02*
X11370000D01*
Y-605000D02*
Y-245000D01*
X10600000Y-605000D02*
X11370000D01*
X10600000D02*
Y-245000D01*
X11620000D02*
X11660000D01*
X11620000Y-605000D02*
Y-245000D01*
Y-605000D02*
X11660000D01*
X12430000D01*
X11660000D02*
Y-245000D01*
X12430000D01*
Y-605000D02*
Y-245000D01*
X11930000Y-1585000D02*
Y-1545000D01*
X11570000D02*
X11930000D01*
X11570000Y-1585000D02*
Y-1545000D01*
Y-2355000D02*
Y-1585000D01*
X11930000D01*
Y-2355000D02*
Y-1585000D01*
X11570000Y-2355000D02*
X11930000D01*
X1685000Y-5680000D02*
X1725000D01*
Y-5320000D01*
X1685000D02*
X1725000D01*
X915000D02*
X1685000D01*
Y-5680000D02*
Y-5320000D01*
X915000Y-5680000D02*
X1685000D01*
X915000D02*
Y-5320000D01*
X984998Y-1972000D02*
X1009998Y-1912000D01*
X984998Y-1972000D02*
X1324998D01*
X75000Y-896000D02*
X1325000D01*
Y-1972000D02*
Y-896000D01*
X75000Y-1912000D02*
Y-896000D01*
Y-1912000D02*
X1009998D01*
X1009998Y-9289000D02*
X1034998Y-9229000D01*
X1009998Y-9289000D02*
X1349998D01*
X100000Y-8213000D02*
X1350000D01*
Y-9289000D02*
Y-8213000D01*
X100000Y-9229000D02*
Y-8213000D01*
Y-9229000D02*
X1034998D01*
X875000Y-3485000D02*
X1100000D01*
X1200000Y-3385000D01*
X150000Y-3485000D02*
X475000D01*
X150000Y-2435000D02*
X475000D01*
X875000D02*
X1200000D01*
X150000Y-3485000D02*
Y-2435000D01*
X1200000Y-3385000D02*
Y-2435000D01*
X1555000Y-6860000D02*
X1555000D01*
Y-6830000D01*
X1555000Y-6235000D02*
X1555000D01*
Y-6205000D01*
X4405000Y-6260000D02*
X4405000D01*
Y-6230000D01*
X4405000Y-6910000D02*
X4405000D01*
Y-6880000D01*
X12849983Y-2645006D02*
X12889983D01*
X12849983Y-2905006D02*
Y-2645006D01*
Y-2905006D02*
X12889983D01*
X13609982D01*
X12889983D02*
Y-2645006D01*
X13609982D01*
Y-2905006D02*
Y-2645006D01*
X15633501Y-275000D02*
X16550000D01*
X16800000D02*
X17716499D01*
Y-3275000D02*
Y-275000D01*
X15633501Y-3275000D02*
X17716499D01*
X15633501D02*
Y-275000D01*
X2175000Y-850000D02*
Y-100000D01*
Y-850000D02*
X3675000D01*
X2175000Y-100000D02*
X3675000D01*
Y-850000D02*
Y-100000D01*
X12825166Y-2025222D02*
X12875166D01*
Y-1325221D01*
X12825166D02*
X12875166D01*
X12575167Y-1675221D02*
X12875166D01*
X12575167Y-1325221D02*
X12625167D01*
X12575167Y-2025222D02*
Y-1325221D01*
Y-2025222D02*
X12625167D01*
X2525222Y-4874833D02*
Y-4824833D01*
X1825221D02*
X2525222D01*
X1825221Y-4874833D02*
Y-4824833D01*
X2175221Y-5124833D02*
Y-4824833D01*
X1825221Y-5124833D02*
Y-5074833D01*
Y-5124833D02*
X2525222D01*
Y-5074833D01*
X13067500Y-3247500D02*
X13510001D01*
X13310001Y-3750000D02*
X13489999D01*
X4325000Y-970000D02*
X4540000D01*
X4325000Y-650000D02*
X4325000Y-650000D01*
X4540000D01*
X4325000Y-1485000D02*
Y-970000D01*
Y-650000D02*
Y-135000D01*
X4540000Y-970000D02*
Y-650000D01*
X4325000Y-135000D02*
X6675000D01*
X4325000Y-1485000D02*
X6675000D01*
Y-135000D01*
X10905000Y-1830000D02*
Y-1750000D01*
X10995000D01*
X10905000Y-2050000D02*
Y-1970000D01*
Y-2050000D02*
X10995000D01*
X9764999Y-4992500D02*
X9844999D01*
Y-5082500D02*
Y-4992500D01*
X9544999D02*
X9624999D01*
X9544999Y-5082500D02*
Y-4992500D01*
D69*
X1530000Y-6860000D02*
G03*
X1530000Y-6860000I-5000J0D01*
G01*
Y-6235000D02*
G03*
X1530000Y-6235000I-5000J0D01*
G01*
X4380000Y-6260000D02*
G03*
X4380000Y-6260000I-5000J0D01*
G01*
Y-6910000D02*
G03*
X4380000Y-6910000I-5000J0D01*
G01*
X2235000Y-7380000D02*
Y-6820000D01*
X1515000D02*
X2235000D01*
X1515000Y-7380000D02*
Y-6820000D01*
Y-7380000D02*
X2235000D01*
Y-6755000D02*
Y-6195000D01*
X1515000D02*
X2235000D01*
X1515000Y-6755000D02*
Y-6195000D01*
Y-6755000D02*
X2235000D01*
X5085000Y-6780000D02*
Y-6220000D01*
X4365000D02*
X5085000D01*
X4365000Y-6780000D02*
Y-6220000D01*
Y-6780000D02*
X5085000D01*
Y-7430000D02*
Y-6870000D01*
X4365000D02*
X5085000D01*
X4365000Y-7430000D02*
Y-6870000D01*
Y-7430000D02*
X5085000D01*
X13884998Y-2859999D02*
Y-2639999D01*
Y-2860001D02*
X14265002D01*
Y-2640001D01*
X13884998D02*
X14265002D01*
X3640003Y-2635001D02*
Y-2415001D01*
X3259997Y-2414999D02*
X3640003D01*
X3259997Y-2634999D02*
Y-2414999D01*
Y-2634999D02*
X3640003D01*
X11230000Y-1280000D02*
Y-1120000D01*
Y-1280000D02*
X11570000D01*
X11230000Y-1120000D02*
X11570000D01*
Y-1280000D02*
Y-1120000D01*
X14270000Y-3130000D02*
Y-2970000D01*
X13930000D02*
X14270000D01*
X13930000Y-3130000D02*
X14270000D01*
X13930000D02*
Y-2970000D01*
Y-3480000D02*
Y-3320000D01*
Y-3480000D02*
X14270000D01*
X13930000Y-3320000D02*
X14270000D01*
Y-3480000D02*
Y-3320000D01*
X13854990Y-4504991D02*
Y-4344991D01*
X13514990D02*
X13854990D01*
X13514990Y-4504991D02*
X13854990D01*
X13514990D02*
Y-4344991D01*
X12220000Y-3980000D02*
Y-3820000D01*
X11880000D02*
X12220000D01*
X11880000Y-3980000D02*
X12220000D01*
X11880000D02*
Y-3820000D01*
X11895010Y-3630010D02*
Y-3470010D01*
Y-3630010D02*
X12235010D01*
X11895010Y-3470010D02*
X12235010D01*
Y-3630010D02*
Y-3470010D01*
X11195000Y-3630000D02*
Y-3470000D01*
X10855000D02*
X11195000D01*
X10855000Y-3630000D02*
X11195000D01*
X10855000D02*
Y-3470000D01*
X10880000Y-4005000D02*
Y-3845000D01*
Y-4005000D02*
X11220000D01*
X10880000Y-3845000D02*
X11220000D01*
Y-4005000D02*
Y-3845000D01*
Y-4755000D02*
Y-4595000D01*
X10880000D02*
X11220000D01*
X10880000Y-4755000D02*
X11220000D01*
X10880000D02*
Y-4595000D01*
X10745000Y-3130000D02*
Y-2970000D01*
X10405000D02*
X10745000D01*
X10405000Y-3130000D02*
X10745000D01*
X10405000D02*
Y-2970000D01*
X11220000Y-4380000D02*
Y-4220000D01*
X10880000D02*
X11220000D01*
X10880000Y-4380000D02*
X11220000D01*
X10880000D02*
Y-4220000D01*
X8880000Y-3980000D02*
Y-3820000D01*
Y-3980000D02*
X9220000D01*
X8880000Y-3820000D02*
X9220000D01*
Y-3980000D02*
Y-3820000D01*
X9870000Y-4730000D02*
Y-4570000D01*
X9530000D02*
X9870000D01*
X9530000Y-4730000D02*
X9870000D01*
X9530000D02*
Y-4570000D01*
X2280000Y-5580000D02*
Y-5420000D01*
Y-5580000D02*
X2620000D01*
X2280000Y-5420000D02*
X2620000D01*
Y-5580000D02*
Y-5420000D01*
X3484992Y-6329992D02*
Y-6169992D01*
X3144992D02*
X3484992D01*
X3144992Y-6329992D02*
X3484992D01*
X3144992D02*
Y-6169992D01*
X3009992Y-6904992D02*
Y-6744992D01*
X2669992D02*
X3009992D01*
X2669992Y-6904992D02*
X3009992D01*
X2669992D02*
Y-6744992D01*
X3155000Y-6905000D02*
Y-6745000D01*
Y-6905000D02*
X3495000D01*
X3155000Y-6745000D02*
X3495000D01*
Y-6905000D02*
Y-6745000D01*
X11850000Y-4140000D02*
X12350000D01*
Y-4360000D02*
Y-4140000D01*
X11850000Y-4360000D02*
X12350000D01*
X11850000D02*
Y-4140000D01*
X3250000Y-3010000D02*
X3750000D01*
X3250000D02*
Y-2790000D01*
X3750000D01*
Y-3010000D02*
Y-2790000D01*
X12065000Y-1925000D02*
Y-1425000D01*
X12285000D01*
Y-1925000D02*
Y-1425000D01*
X12065000Y-1925000D02*
X12285000D01*
X3955003Y-5590001D02*
X4455003D01*
Y-5810001D02*
Y-5590001D01*
X3955003Y-5810001D02*
X4455003D01*
X3955003D02*
Y-5590001D01*
X11884997Y-2984999D02*
Y-2764999D01*
Y-2985001D02*
X12265003D01*
Y-2765001D01*
X11884997D02*
X12265003D01*
X11280004Y-3135001D02*
Y-2915001D01*
X10899998Y-2914999D02*
X11280004D01*
X10899998Y-3134999D02*
Y-2914999D01*
Y-3134999D02*
X11280004D01*
X10615003Y-4785001D02*
Y-4565001D01*
X10234997Y-4564999D02*
X10615003D01*
X10234997Y-4784999D02*
Y-4564999D01*
Y-4784999D02*
X10615003D01*
X614999Y-5815003D02*
X834999D01*
X835001D02*
Y-5434997D01*
X615001D02*
X835001D01*
X615001Y-5815003D02*
Y-5434997D01*
X2859997Y-7984999D02*
Y-7764999D01*
Y-7985001D02*
X3240003D01*
Y-7765001D01*
X2859997D02*
X3240003D01*
X3890003Y-7985001D02*
Y-7765001D01*
X3509997Y-7764999D02*
X3890003D01*
X3509997Y-7984999D02*
Y-7764999D01*
Y-7984999D02*
X3890003D01*
X4135034Y-7990000D02*
Y-7770000D01*
Y-7990002D02*
X4515040D01*
Y-7770002D01*
X4135034D02*
X4515040D01*
X4710032Y-7990000D02*
Y-7770000D01*
Y-7990002D02*
X5090039D01*
Y-7770002D01*
X4710032D02*
X5090039D01*
X2634997Y-6384999D02*
Y-6164999D01*
Y-6385001D02*
X3015003D01*
Y-6165001D01*
X2634997D02*
X3015003D01*
X3220000Y-1255000D02*
Y-1095000D01*
X2880000D02*
X3220000D01*
X2880000Y-1255000D02*
X3220000D01*
X2880000D02*
Y-1095000D01*
X1380000Y-605000D02*
Y-445000D01*
Y-605000D02*
X1720000D01*
X1380000Y-445000D02*
X1720000D01*
Y-605000D02*
Y-445000D01*
X11905000Y-3355000D02*
Y-3195000D01*
Y-3355000D02*
X12245000D01*
X11905000Y-3195000D02*
X12245000D01*
Y-3355000D02*
Y-3195000D01*
X12770000Y-3355000D02*
X12930000D01*
X12770000Y-3695000D02*
Y-3355000D01*
X12930000Y-3695000D02*
Y-3355000D01*
X12770000Y-3695000D02*
X12930000D01*
X2780006Y-5930009D02*
Y-5770009D01*
X2440006D02*
X2780006D01*
X2440006Y-5930009D02*
X2780006D01*
X2440006D02*
Y-5770009D01*
X3776600Y-6275800D02*
Y-6174200D01*
X3573400D02*
X3776600D01*
X3573400Y-6275800D02*
Y-6174200D01*
Y-6275800D02*
X3776600D01*
X2373400Y-5325800D02*
Y-5224200D01*
Y-5325800D02*
X2576600D01*
Y-5224200D01*
X2373400D02*
X2576600D01*
X2573402Y-6100803D02*
Y-5999203D01*
Y-6100803D02*
X2776602D01*
Y-5999203D01*
X2573402D02*
X2776602D01*
X4326600Y-6050800D02*
Y-5949200D01*
X4123400D02*
X4326600D01*
X4123400Y-6050800D02*
Y-5949200D01*
Y-6050800D02*
X4326600D01*
D70*
X2305000Y-1575000D02*
G03*
X2305000Y-1575000I-380000J0D01*
G01*
D71*
X8975000Y-1400000D02*
G03*
X8975000Y-1400000I-25000J0D01*
G01*
D72*
X13454820Y-541840D02*
G03*
X13454820Y-541840I-25400J0D01*
G01*
X7110000Y-100000D02*
X10140000D01*
Y-600000D02*
Y-100000D01*
X7110000Y-600000D02*
X10140000D01*
X7110000D02*
Y-100000D01*
X13371001Y-285300D02*
X13383701Y-577400D01*
X13409100Y-602800D01*
X14348900D01*
X14374300Y-577400D01*
X14387000Y-285300D01*
X7249984Y-4430000D02*
Y-4496645D01*
X7283306Y-4463322D02*
X7216661D01*
X6424984Y-4455000D02*
Y-4521645D01*
X6458306Y-4488323D02*
X6391661D01*
D73*
X8655000Y-1935000D02*
Y-865000D01*
X9795000D01*
Y-1935000D02*
Y-865000D01*
X8655000Y-1935000D02*
X9795000D01*
X8655000D02*
Y-865000D01*
X9440000Y-3395000D02*
X10610000D01*
X9440000Y-3955000D02*
X10610000D01*
Y-3395000D01*
X9440000Y-3955000D02*
Y-3395000D01*
D74*
X12250000Y-950000D02*
Y-750000D01*
X12450000Y-770000D02*
Y-750000D01*
X12050000D02*
X12450000D01*
X12050000Y-770000D02*
Y-750000D01*
Y-950000D02*
Y-930000D01*
Y-950000D02*
X12450000D01*
Y-930000D01*
D75*
X10125024Y-1522500D02*
Y-1422533D01*
X10075041Y-1472516D02*
X10175008D01*
X7652500Y-1400024D02*
X7752467D01*
X7702484Y-1350040D02*
Y-1450008D01*
D76*
X466306Y-8924645D02*
X482968Y-8907984D01*
Y-8874661D01*
X466306Y-8858000D01*
X399661D01*
X383000Y-8874661D01*
Y-8907984D01*
X399661Y-8924645D01*
X432984D01*
Y-8891323D01*
X383000Y-8957968D02*
X482968D01*
X383000Y-9024613D01*
X482968D01*
Y-9057936D02*
X383000D01*
Y-9107920D01*
X399661Y-9124581D01*
X466306D01*
X482968Y-9107920D01*
Y-9057936D01*
X457984Y-8283000D02*
Y-8349645D01*
X491307Y-8316323D02*
X424662D01*
X408000Y-8432952D02*
X507968D01*
X457984Y-8382968D01*
Y-8449613D01*
X491307Y-8482936D02*
X507968Y-8499597D01*
Y-8532920D01*
X491307Y-8549581D01*
X474645D01*
X457984Y-8532920D01*
X441323Y-8549581D01*
X424662D01*
X408000Y-8532920D01*
Y-8499597D01*
X424662Y-8482936D01*
X441323D01*
X457984Y-8499597D01*
X474645Y-8482936D01*
X491307D01*
X457984Y-8499597D02*
Y-8532920D01*
X507968Y-8582904D02*
X441323D01*
X408000Y-8616226D01*
X441323Y-8649549D01*
X507968D01*
X383000Y-1633000D02*
X482968D01*
X383000Y-1699645D01*
X482968D01*
X507968Y-1133000D02*
X408000D01*
Y-1199645D01*
X5233339Y-7258323D02*
Y-7191678D01*
X5216677Y-7175016D01*
X5183355D01*
X5166694Y-7191678D01*
Y-7258323D01*
X5183355Y-7274984D01*
X5216677D01*
X5200016Y-7241661D02*
X5233339Y-7274984D01*
X5216677D02*
X5233339Y-7258323D01*
X5333306Y-7175016D02*
X5299984Y-7191678D01*
X5266661Y-7225000D01*
Y-7258323D01*
X5283323Y-7274984D01*
X5316645D01*
X5333306Y-7258323D01*
Y-7241661D01*
X5316645Y-7225000D01*
X5266661D01*
X4441710Y-6024984D02*
Y-5925016D01*
X4491694D01*
X4508355Y-5941677D01*
Y-5975000D01*
X4491694Y-5991661D01*
X4441710D01*
X4475032D02*
X4508355Y-6024984D01*
X4608323D02*
X4541677D01*
X4608323Y-5958339D01*
Y-5941677D01*
X4591661Y-5925016D01*
X4558339D01*
X4541677Y-5941677D01*
X4691629Y-6024984D02*
Y-5925016D01*
X4641645Y-5975000D01*
X4708290D01*
X4643360Y-5666680D02*
X4626699Y-5650019D01*
X4593377D01*
X4576715Y-5666680D01*
Y-5733325D01*
X4593377Y-5749986D01*
X4626699D01*
X4643360Y-5733325D01*
X4726667Y-5749986D02*
Y-5650019D01*
X4676683Y-5700003D01*
X4743328D01*
X4843296Y-5650019D02*
X4776651D01*
Y-5700003D01*
X4809973Y-5683341D01*
X4826635D01*
X4843296Y-5700003D01*
Y-5733325D01*
X4826635Y-5749986D01*
X4793312D01*
X4776651Y-5733325D01*
X3012280Y-5223992D02*
Y-5307299D01*
X3028941Y-5323960D01*
X3062264D01*
X3078925Y-5307299D01*
Y-5223992D01*
X3162232Y-5323960D02*
Y-5223992D01*
X3112248Y-5273976D01*
X3178893D01*
X7719505Y-998853D02*
X7702844Y-982192D01*
X7669521D01*
X7652860Y-998853D01*
Y-1065499D01*
X7669521Y-1082160D01*
X7702844D01*
X7719505Y-1065499D01*
X7819473Y-1082160D02*
X7752828D01*
X7819473Y-1015515D01*
Y-998853D01*
X7802812Y-982192D01*
X7769489D01*
X7752828Y-998853D01*
X10600000Y-1066678D02*
X10583339Y-1050016D01*
X10550016D01*
X10533355Y-1066678D01*
Y-1133323D01*
X10550016Y-1149984D01*
X10583339D01*
X10600000Y-1133323D01*
X10633323Y-1149984D02*
X10666645D01*
X10649984D01*
Y-1050016D01*
X10633323Y-1066678D01*
X9586692Y-5262516D02*
Y-5345823D01*
X9603353Y-5362484D01*
X9636676D01*
X9653337Y-5345823D01*
Y-5262516D01*
X9686660Y-5279178D02*
X9703321Y-5262516D01*
X9736644D01*
X9753305Y-5279178D01*
Y-5295839D01*
X9736644Y-5312500D01*
X9719982D01*
X9736644D01*
X9753305Y-5329162D01*
Y-5345823D01*
X9736644Y-5362484D01*
X9703321D01*
X9686660Y-5345823D01*
X9366694Y-3200016D02*
Y-3283323D01*
X9383355Y-3299984D01*
X9416678D01*
X9433339Y-3283323D01*
Y-3200016D01*
X9533307Y-3299984D02*
X9466662D01*
X9533307Y-3233339D01*
Y-3216678D01*
X9516645Y-3200016D01*
X9483323D01*
X9466662Y-3216678D01*
X12833356Y-3025016D02*
Y-3108323D01*
X12850015Y-3124984D01*
X12883339D01*
X12900000Y-3108323D01*
Y-3025016D01*
X12933324Y-3124984D02*
X12966644D01*
X12949985D01*
Y-3025016D01*
X12933324Y-3041678D01*
X14875015Y-1041645D02*
Y-975000D01*
Y-1008322D01*
X14974985D01*
Y-941677D02*
Y-908355D01*
Y-925016D01*
X14875015D01*
X14891676Y-941677D01*
X3816710Y-2524984D02*
Y-2425016D01*
X3866694D01*
X3883355Y-2441678D01*
Y-2475000D01*
X3866694Y-2491662D01*
X3816710D01*
X3850032D02*
X3883355Y-2524984D01*
X3983322D02*
X3916677D01*
X3983322Y-2458339D01*
Y-2441678D01*
X3966661Y-2425016D01*
X3933339D01*
X3916677Y-2441678D01*
X4083290Y-2425016D02*
X4049968Y-2441678D01*
X4016645Y-2475000D01*
Y-2508323D01*
X4033307Y-2524984D01*
X4066629D01*
X4083290Y-2508323D01*
Y-2491662D01*
X4066629Y-2475000D01*
X4016645D01*
X3191710Y-7074984D02*
Y-6975016D01*
X3241694D01*
X3258355Y-6991678D01*
Y-7025000D01*
X3241694Y-7041662D01*
X3191710D01*
X3225032D02*
X3258355Y-7074984D01*
X3358322D02*
X3291677D01*
X3358322Y-7008339D01*
Y-6991678D01*
X3341661Y-6975016D01*
X3308339D01*
X3291677Y-6991678D01*
X3458290Y-6975016D02*
X3391645D01*
Y-7025000D01*
X3424968Y-7008339D01*
X3441629D01*
X3458290Y-7025000D01*
Y-7058323D01*
X3441629Y-7074984D01*
X3408307D01*
X3391645Y-7058323D01*
X2066712Y-6099987D02*
Y-6000019D01*
X2116696D01*
X2133357Y-6016680D01*
Y-6050003D01*
X2116696Y-6066664D01*
X2066712D01*
X2100034D02*
X2133357Y-6099987D01*
X2233324D02*
X2166679D01*
X2233324Y-6033342D01*
Y-6016680D01*
X2216663Y-6000019D01*
X2183341D01*
X2166679Y-6016680D01*
X2266647D02*
X2283309Y-6000019D01*
X2316631D01*
X2333292Y-6016680D01*
Y-6033342D01*
X2316631Y-6050003D01*
X2299970D01*
X2316631D01*
X2333292Y-6066664D01*
Y-6083325D01*
X2316631Y-6099987D01*
X2283309D01*
X2266647Y-6083325D01*
X2616710Y-5324984D02*
Y-5225016D01*
X2666694D01*
X2683355Y-5241678D01*
Y-5275000D01*
X2666694Y-5291662D01*
X2616710D01*
X2650032D02*
X2683355Y-5324984D01*
X2783323D02*
X2716678D01*
X2783323Y-5258339D01*
Y-5241678D01*
X2766661Y-5225016D01*
X2733339D01*
X2716678Y-5241678D01*
X2883290Y-5324984D02*
X2816645D01*
X2883290Y-5258339D01*
Y-5241678D01*
X2866629Y-5225016D01*
X2833307D01*
X2816645Y-5241678D01*
X2723363Y-7099976D02*
Y-7000008D01*
X2773347D01*
X2790008Y-7016669D01*
Y-7049992D01*
X2773347Y-7066653D01*
X2723363D01*
X2756685D02*
X2790008Y-7099976D01*
X2889976D02*
X2823331D01*
X2889976Y-7033331D01*
Y-7016669D01*
X2873315Y-7000008D01*
X2839992D01*
X2823331Y-7016669D01*
X2923298Y-7099976D02*
X2956621D01*
X2939960D01*
Y-7000008D01*
X2923298Y-7016669D01*
X3191710Y-6574984D02*
Y-6475016D01*
X3241694D01*
X3258355Y-6491677D01*
Y-6525000D01*
X3241694Y-6541661D01*
X3191710D01*
X3225032D02*
X3258355Y-6574984D01*
X3358322D02*
X3291677D01*
X3358322Y-6508339D01*
Y-6491677D01*
X3341661Y-6475016D01*
X3308339D01*
X3291677Y-6491677D01*
X3391645D02*
X3408307Y-6475016D01*
X3441629D01*
X3458290Y-6491677D01*
Y-6558322D01*
X3441629Y-6574984D01*
X3408307D01*
X3391645Y-6558322D01*
Y-6491677D01*
X2350040Y-5699984D02*
Y-5600016D01*
X2400024D01*
X2416685Y-5616677D01*
Y-5650000D01*
X2400024Y-5666661D01*
X2350040D01*
X2383363D02*
X2416685Y-5699984D01*
X2450008D02*
X2483331D01*
X2466669D01*
Y-5600016D01*
X2450008Y-5616677D01*
X2533314Y-5683322D02*
X2549976Y-5699984D01*
X2583298D01*
X2599959Y-5683322D01*
Y-5616677D01*
X2583298Y-5600016D01*
X2549976D01*
X2533314Y-5616677D01*
Y-5633339D01*
X2549976Y-5650000D01*
X2599959D01*
X2100040Y-4699984D02*
Y-4600016D01*
X2150024D01*
X2166685Y-4616677D01*
Y-4650000D01*
X2150024Y-4666661D01*
X2100040D01*
X2133363D02*
X2166685Y-4699984D01*
X2200008D02*
X2233331D01*
X2216669D01*
Y-4600016D01*
X2200008Y-4616677D01*
X2283314D02*
X2299976Y-4600016D01*
X2333298D01*
X2349959Y-4616677D01*
Y-4633339D01*
X2333298Y-4650000D01*
X2349959Y-4666661D01*
Y-4683322D01*
X2333298Y-4699984D01*
X2299976D01*
X2283314Y-4683322D01*
Y-4666661D01*
X2299976Y-4650000D01*
X2283314Y-4633339D01*
Y-4616677D01*
X2299976Y-4650000D02*
X2333298D01*
X9150040Y-4674984D02*
Y-4575016D01*
X9200024D01*
X9216685Y-4591677D01*
Y-4625000D01*
X9200024Y-4641661D01*
X9150040D01*
X9183363D02*
X9216685Y-4674984D01*
X9250008D02*
X9283330D01*
X9266669D01*
Y-4575016D01*
X9250008Y-4591677D01*
X9333314Y-4575016D02*
X9399959D01*
Y-4591677D01*
X9333314Y-4658322D01*
Y-4674984D01*
X8515032Y-3924976D02*
Y-3825008D01*
X8565016D01*
X8581677Y-3841669D01*
Y-3874992D01*
X8565016Y-3891653D01*
X8515032D01*
X8548355D02*
X8581677Y-3924976D01*
X8615000D02*
X8648323D01*
X8631661D01*
Y-3825008D01*
X8615000Y-3841669D01*
X8764951Y-3825008D02*
X8731629Y-3841669D01*
X8698306Y-3874992D01*
Y-3908315D01*
X8714968Y-3924976D01*
X8748290D01*
X8764951Y-3908315D01*
Y-3891653D01*
X8748290Y-3874992D01*
X8698306D01*
X11350041Y-4349984D02*
Y-4250016D01*
X11400024D01*
X11416686Y-4266678D01*
Y-4300000D01*
X11400024Y-4316661D01*
X11350041D01*
X11383363D02*
X11416686Y-4349984D01*
X11450008D02*
X11483331D01*
X11466670D01*
Y-4250016D01*
X11450008Y-4266678D01*
X11599960Y-4250016D02*
X11533315D01*
Y-4300000D01*
X11566637Y-4283339D01*
X11583299D01*
X11599960Y-4300000D01*
Y-4333323D01*
X11583299Y-4349984D01*
X11549976D01*
X11533315Y-4333323D01*
X10050040Y-3074984D02*
Y-2975016D01*
X10100024D01*
X10116685Y-2991678D01*
Y-3025000D01*
X10100024Y-3041661D01*
X10050040D01*
X10083363D02*
X10116685Y-3074984D01*
X10150008D02*
X10183331D01*
X10166670D01*
Y-2975016D01*
X10150008Y-2991678D01*
X10283298Y-3074984D02*
Y-2975016D01*
X10233315Y-3025000D01*
X10299960D01*
X11350041Y-4724984D02*
Y-4625016D01*
X11400024D01*
X11416686Y-4641678D01*
Y-4675000D01*
X11400024Y-4691661D01*
X11350041D01*
X11383363D02*
X11416686Y-4724984D01*
X11450008D02*
X11483331D01*
X11466670D01*
Y-4625016D01*
X11450008Y-4641678D01*
X11533315D02*
X11549976Y-4625016D01*
X11583299D01*
X11599960Y-4641678D01*
Y-4658339D01*
X11583299Y-4675000D01*
X11566637D01*
X11583299D01*
X11599960Y-4691661D01*
Y-4708323D01*
X11583299Y-4724984D01*
X11549976D01*
X11533315Y-4708323D01*
X11350041Y-3974984D02*
Y-3875016D01*
X11400024D01*
X11416686Y-3891678D01*
Y-3925000D01*
X11400024Y-3941661D01*
X11350041D01*
X11383363D02*
X11416686Y-3974984D01*
X11450008D02*
X11483331D01*
X11466670D01*
Y-3875016D01*
X11450008Y-3891678D01*
X11599960Y-3974984D02*
X11533315D01*
X11599960Y-3908339D01*
Y-3891678D01*
X11583299Y-3875016D01*
X11549976D01*
X11533315Y-3891678D01*
X11306710Y-3574992D02*
Y-3475024D01*
X11356694D01*
X11373355Y-3491686D01*
Y-3525008D01*
X11356694Y-3541670D01*
X11306710D01*
X11340032D02*
X11373355Y-3574992D01*
X11406678D02*
X11440000D01*
X11423339D01*
Y-3475024D01*
X11406678Y-3491686D01*
X11489984Y-3574992D02*
X11523307D01*
X11506646D01*
Y-3475024D01*
X11489984Y-3491686D01*
X12480042Y-3599985D02*
Y-3500018D01*
X12530026D01*
X12546687Y-3516679D01*
Y-3550002D01*
X12530026Y-3566663D01*
X12480042D01*
X12513364D02*
X12546687Y-3599985D01*
X12580010D02*
X12613332D01*
X12596671D01*
Y-3500018D01*
X12580010Y-3516679D01*
X12663316D02*
X12679977Y-3500018D01*
X12713300D01*
X12729961Y-3516679D01*
Y-3583324D01*
X12713300Y-3599985D01*
X12679977D01*
X12663316Y-3583324D01*
Y-3516679D01*
X12416693Y-3974984D02*
Y-3875016D01*
X12466677D01*
X12483339Y-3891678D01*
Y-3925000D01*
X12466677Y-3941661D01*
X12416693D01*
X12450016D02*
X12483339Y-3974984D01*
X12516661Y-3958323D02*
X12533323Y-3974984D01*
X12566645D01*
X12583306Y-3958323D01*
Y-3891678D01*
X12566645Y-3875016D01*
X12533323D01*
X12516661Y-3891678D01*
Y-3908339D01*
X12533323Y-3925000D01*
X12583306D01*
X12565220Y-1257420D02*
Y-1157452D01*
X12615204D01*
X12631865Y-1174113D01*
Y-1207436D01*
X12615204Y-1224097D01*
X12565220D01*
X12598542D02*
X12631865Y-1257420D01*
X12665188Y-1174113D02*
X12681849Y-1157452D01*
X12715172D01*
X12731833Y-1174113D01*
Y-1190775D01*
X12715172Y-1207436D01*
X12731833Y-1224097D01*
Y-1240759D01*
X12715172Y-1257420D01*
X12681849D01*
X12665188Y-1240759D01*
Y-1224097D01*
X12681849Y-1207436D01*
X12665188Y-1190775D01*
Y-1174113D01*
X12681849Y-1207436D02*
X12715172D01*
X12067380Y-1361560D02*
Y-1261592D01*
X12117364D01*
X12134025Y-1278253D01*
Y-1311576D01*
X12117364Y-1328237D01*
X12067380D01*
X12100702D02*
X12134025Y-1361560D01*
X12167348Y-1261592D02*
X12233993D01*
Y-1278253D01*
X12167348Y-1344899D01*
Y-1361560D01*
X13318295Y-4350007D02*
Y-4449975D01*
X13268312D01*
X13251651Y-4433314D01*
Y-4399991D01*
X13268312Y-4383330D01*
X13318295D01*
X13284973D02*
X13251651Y-4350007D01*
X13151683Y-4449975D02*
X13185005Y-4433314D01*
X13218327Y-4399991D01*
Y-4366669D01*
X13201666Y-4350007D01*
X13168344D01*
X13151683Y-4366669D01*
Y-4383330D01*
X13168344Y-4399991D01*
X13218327D01*
X14426685Y-3449976D02*
Y-3350008D01*
X14476669D01*
X14493330Y-3366669D01*
Y-3399992D01*
X14476669Y-3416653D01*
X14426685D01*
X14460008D02*
X14493330Y-3449976D01*
X14593298Y-3350008D02*
X14526653D01*
Y-3399992D01*
X14559976Y-3383331D01*
X14576637D01*
X14593298Y-3399992D01*
Y-3433314D01*
X14576637Y-3449976D01*
X14543315D01*
X14526653Y-3433314D01*
X14416695Y-3099984D02*
Y-3000016D01*
X14466676D01*
X14483339Y-3016677D01*
Y-3050000D01*
X14466676Y-3066661D01*
X14416695D01*
X14450015D02*
X14483339Y-3099984D01*
X14566644D02*
Y-3000016D01*
X14516661Y-3050000D01*
X14583305D01*
X11234260Y-1056760D02*
Y-956792D01*
X11284244D01*
X11300905Y-973453D01*
Y-1006776D01*
X11284244Y-1023437D01*
X11234260D01*
X11267582D02*
X11300905Y-1056760D01*
X11334228Y-973453D02*
X11350889Y-956792D01*
X11384212D01*
X11400873Y-973453D01*
Y-990115D01*
X11384212Y-1006776D01*
X11367550D01*
X11384212D01*
X11400873Y-1023437D01*
Y-1040099D01*
X11384212Y-1056760D01*
X11350889D01*
X11334228Y-1040099D01*
X14416695Y-2749984D02*
Y-2650016D01*
X14466676D01*
X14483339Y-2666677D01*
Y-2700000D01*
X14466676Y-2716661D01*
X14416695D01*
X14450015D02*
X14483339Y-2749984D01*
X14583305D02*
X14516661D01*
X14583305Y-2683339D01*
Y-2666677D01*
X14566644Y-2650016D01*
X14533324D01*
X14516661Y-2666677D01*
X11883355Y-924984D02*
Y-825016D01*
X11933339D01*
X11950000Y-841678D01*
Y-875000D01*
X11933339Y-891661D01*
X11883355D01*
X11916677D02*
X11950000Y-924984D01*
X11983323D02*
X12016645D01*
X11999984D01*
Y-825016D01*
X11983323Y-841678D01*
X5233339Y-6533322D02*
Y-6466677D01*
X5216677Y-6450016D01*
X5183355D01*
X5166694Y-6466677D01*
Y-6533322D01*
X5183355Y-6549984D01*
X5216677D01*
X5200016Y-6516661D02*
X5233339Y-6549984D01*
X5216677D02*
X5233339Y-6533322D01*
X5333306Y-6450016D02*
X5266661D01*
Y-6500000D01*
X5299984Y-6483339D01*
X5316645D01*
X5333306Y-6500000D01*
Y-6533322D01*
X5316645Y-6549984D01*
X5283323D01*
X5266661Y-6533322D01*
X1283339Y-6583323D02*
Y-6516678D01*
X1266677Y-6500016D01*
X1233355D01*
X1216694Y-6516678D01*
Y-6583323D01*
X1233355Y-6599984D01*
X1266677D01*
X1250016Y-6566661D02*
X1283339Y-6599984D01*
X1266677D02*
X1283339Y-6583323D01*
X1366645Y-6599984D02*
Y-6500016D01*
X1316661Y-6550000D01*
X1383306D01*
X1308339Y-7308322D02*
Y-7241677D01*
X1291677Y-7225016D01*
X1258355D01*
X1241693Y-7241677D01*
Y-7308322D01*
X1258355Y-7324984D01*
X1291677D01*
X1275016Y-7291661D02*
X1308339Y-7324984D01*
X1291677D02*
X1308339Y-7308322D01*
X1341661Y-7241677D02*
X1358323Y-7225016D01*
X1391645D01*
X1408306Y-7241677D01*
Y-7258339D01*
X1391645Y-7275000D01*
X1374984D01*
X1391645D01*
X1408306Y-7291661D01*
Y-7308322D01*
X1391645Y-7324984D01*
X1358323D01*
X1341661Y-7308322D01*
X10891965Y-1664939D02*
Y-1598293D01*
X10875304Y-1581632D01*
X10841981D01*
X10825320Y-1598293D01*
Y-1664939D01*
X10841981Y-1681600D01*
X10875304D01*
X10858642Y-1648277D02*
X10891965Y-1681600D01*
X10875304D02*
X10891965Y-1664939D01*
X10991933Y-1681600D02*
X10925288D01*
X10991933Y-1614955D01*
Y-1598293D01*
X10975272Y-1581632D01*
X10941949D01*
X10925288Y-1598293D01*
X13475000Y-933322D02*
Y-866677D01*
X13458339Y-850016D01*
X13425015D01*
X13408356Y-866677D01*
Y-933322D01*
X13425015Y-949984D01*
X13458339D01*
X13441676Y-916661D02*
X13475000Y-949984D01*
X13458339D02*
X13475000Y-933322D01*
X13508324Y-949984D02*
X13541644D01*
X13524985D01*
Y-850016D01*
X13508324Y-866677D01*
X109060Y-9540360D02*
Y-9440392D01*
X142382Y-9473715D01*
X175705Y-9440392D01*
Y-9540360D01*
X209028Y-9440392D02*
Y-9540360D01*
Y-9490376D01*
X275673D01*
Y-9440392D01*
Y-9540360D01*
X358979D02*
Y-9440392D01*
X308996Y-9490376D01*
X375641D01*
X109060Y-40760D02*
Y59208D01*
X142382Y25885D01*
X175705Y59208D01*
Y-40760D01*
X209028Y59208D02*
Y-40760D01*
Y9224D01*
X275673D01*
Y59208D01*
Y-40760D01*
X308996Y42547D02*
X325657Y59208D01*
X358979D01*
X375641Y42547D01*
Y25885D01*
X358979Y9224D01*
X342318D01*
X358979D01*
X375641Y-7437D01*
Y-24099D01*
X358979Y-40760D01*
X325657D01*
X308996Y-24099D01*
X19407980Y-9540360D02*
Y-9440392D01*
X19441302Y-9473715D01*
X19474625Y-9440392D01*
Y-9540360D01*
X19507948Y-9440392D02*
Y-9540360D01*
Y-9490376D01*
X19574593D01*
Y-9440392D01*
Y-9540360D01*
X19674561D02*
X19607916D01*
X19674561Y-9473715D01*
Y-9457053D01*
X19657899Y-9440392D01*
X19624577D01*
X19607916Y-9457053D01*
X19508371Y-824984D02*
Y-725016D01*
X19541695Y-758339D01*
X19575015Y-725016D01*
Y-824984D01*
X19608339Y-725016D02*
Y-824984D01*
Y-775000D01*
X19674985D01*
Y-725016D01*
Y-824984D01*
X19708307D02*
X19741629D01*
X19724968D01*
Y-725016D01*
X19708307Y-741677D01*
X134460Y-2249652D02*
Y-2349620D01*
X201105D01*
X301073Y-2249652D02*
X234428D01*
Y-2299636D01*
X267750Y-2282975D01*
X284412D01*
X301073Y-2299636D01*
Y-2332959D01*
X284412Y-2349620D01*
X251089D01*
X234428Y-2332959D01*
X4791693Y-1700016D02*
Y-1799984D01*
X4858339D01*
X4941645D02*
Y-1700016D01*
X4891661Y-1750000D01*
X4958306D01*
X1891694Y-700016D02*
Y-799984D01*
X1958339D01*
X1991661Y-716678D02*
X2008323Y-700016D01*
X2041645D01*
X2058307Y-716678D01*
Y-733339D01*
X2041645Y-750000D01*
X2024984D01*
X2041645D01*
X2058307Y-766661D01*
Y-783323D01*
X2041645Y-799984D01*
X2008323D01*
X1991661Y-783323D01*
X8661240Y-702792D02*
Y-802760D01*
X8727885D01*
X8827853D02*
X8761208D01*
X8827853Y-736115D01*
Y-719453D01*
X8811192Y-702792D01*
X8777869D01*
X8761208Y-719453D01*
X136184Y-8030692D02*
X102861D01*
X86200Y-8047353D01*
Y-8113999D01*
X102861Y-8130660D01*
X136184D01*
X152845Y-8113999D01*
Y-8047353D01*
X136184Y-8030692D01*
X186168D02*
Y-8113999D01*
X202829Y-8130660D01*
X236152D01*
X252813Y-8113999D01*
Y-8030692D01*
X286136D02*
X352781D01*
X319458D01*
Y-8130660D01*
X386103D02*
Y-8030692D01*
X436087D01*
X452748Y-8047353D01*
Y-8080676D01*
X436087Y-8097337D01*
X386103D01*
X486071Y-8030692D02*
Y-8113999D01*
X502733Y-8130660D01*
X536055D01*
X552716Y-8113999D01*
Y-8030692D01*
X586039D02*
X652684D01*
X619361D01*
Y-8130660D01*
X60800Y-715492D02*
X94122D01*
X77461D01*
Y-815460D01*
X60800D01*
X94122D01*
X144106D02*
Y-715492D01*
X210751Y-815460D01*
Y-715492D01*
X244074Y-815460D02*
Y-715492D01*
X294058D01*
X310719Y-732153D01*
Y-765476D01*
X294058Y-782137D01*
X244074D01*
X344042Y-715492D02*
Y-798799D01*
X360703Y-815460D01*
X394026D01*
X410687Y-798799D01*
Y-715492D01*
X444010D02*
X510655D01*
X477332D01*
Y-815460D01*
X1975000Y-2150016D02*
X1908355D01*
Y-2200000D01*
X1941678D01*
X1908355D01*
Y-2249984D01*
X2008323D02*
X2041645D01*
X2024984D01*
Y-2150016D01*
X2008323Y-2166677D01*
X1116693Y-5850016D02*
Y-5949984D01*
X1166677D01*
X1183339Y-5933323D01*
Y-5866678D01*
X1166677Y-5850016D01*
X1116693D01*
X1216661D02*
X1283306D01*
Y-5866678D01*
X1216661Y-5933323D01*
Y-5949984D01*
X11350016Y-2308306D02*
X11449984D01*
Y-2258322D01*
X11433323Y-2241661D01*
X11366678D01*
X11350016Y-2258322D01*
Y-2308306D01*
Y-2141693D02*
X11366678Y-2175016D01*
X11400000Y-2208338D01*
X11433323D01*
X11449984Y-2191677D01*
Y-2158355D01*
X11433323Y-2141693D01*
X11416661D01*
X11400000Y-2158355D01*
Y-2208338D01*
X13666695Y-2750016D02*
Y-2849984D01*
X13716676D01*
X13733339Y-2833323D01*
Y-2766677D01*
X13716676Y-2750016D01*
X13666695D01*
X13833305D02*
X13766661D01*
Y-2800000D01*
X13799985Y-2783339D01*
X13816644D01*
X13833305Y-2800000D01*
Y-2833323D01*
X13816644Y-2849984D01*
X13783324D01*
X13766661Y-2833323D01*
X13085921Y-1159992D02*
Y-1259960D01*
X13135904D01*
X13152565Y-1243299D01*
Y-1176653D01*
X13135904Y-1159992D01*
X13085921D01*
X13235872Y-1259960D02*
Y-1159992D01*
X13185889Y-1209976D01*
X13252533D01*
X12466694Y-400016D02*
Y-499984D01*
X12516678D01*
X12533339Y-483323D01*
Y-416678D01*
X12516678Y-400016D01*
X12466694D01*
X12566661Y-416678D02*
X12583323Y-400016D01*
X12616645D01*
X12633306Y-416678D01*
Y-433339D01*
X12616645Y-450000D01*
X12599984D01*
X12616645D01*
X12633306Y-466662D01*
Y-483323D01*
X12616645Y-499984D01*
X12583323D01*
X12566661Y-483323D01*
X7191694Y-725016D02*
Y-824984D01*
X7241677D01*
X7258339Y-808322D01*
Y-741677D01*
X7241677Y-725016D01*
X7191694D01*
X7358306Y-824984D02*
X7291661D01*
X7358306Y-758339D01*
Y-741677D01*
X7341645Y-725016D01*
X7308323D01*
X7291661Y-741677D01*
X10333355Y-375016D02*
Y-474984D01*
X10383339D01*
X10400000Y-458322D01*
Y-391677D01*
X10383339Y-375016D01*
X10333355D01*
X10433323Y-474984D02*
X10466645D01*
X10449984D01*
Y-375016D01*
X10433323Y-391677D01*
X2748354Y-6491677D02*
X2731693Y-6475016D01*
X2698371D01*
X2681709Y-6491677D01*
Y-6558322D01*
X2698371Y-6574984D01*
X2731693D01*
X2748354Y-6558322D01*
X2831661Y-6574984D02*
Y-6475016D01*
X2781677Y-6525000D01*
X2848322D01*
X2881645Y-6475016D02*
X2948290D01*
Y-6491677D01*
X2881645Y-6558322D01*
Y-6574984D01*
X3908355Y-6191677D02*
X3891694Y-6175016D01*
X3858371D01*
X3841710Y-6191677D01*
Y-6258323D01*
X3858371Y-6274984D01*
X3891694D01*
X3908355Y-6258323D01*
X3991661Y-6274984D02*
Y-6175016D01*
X3941677Y-6225000D01*
X4008322D01*
X4108290Y-6175016D02*
X4074968Y-6191677D01*
X4041645Y-6225000D01*
Y-6258323D01*
X4058307Y-6274984D01*
X4091629D01*
X4108290Y-6258323D01*
Y-6241661D01*
X4091629Y-6225000D01*
X4041645D01*
X2108352Y-5791679D02*
X2091691Y-5775017D01*
X2058369D01*
X2041707Y-5791679D01*
Y-5858324D01*
X2058369Y-5874985D01*
X2091691D01*
X2108352Y-5858324D01*
X2191659Y-5874985D02*
Y-5775017D01*
X2141675Y-5825001D01*
X2208320D01*
X2291627Y-5874985D02*
Y-5775017D01*
X2241643Y-5825001D01*
X2308288D01*
X4780725Y-7623173D02*
X4764064Y-7606512D01*
X4730741D01*
X4714080Y-7623173D01*
Y-7689819D01*
X4730741Y-7706480D01*
X4764064D01*
X4780725Y-7689819D01*
X4864032Y-7706480D02*
Y-7606512D01*
X4814048Y-7656496D01*
X4880693D01*
X4914016Y-7623173D02*
X4930677Y-7606512D01*
X4963999D01*
X4980661Y-7623173D01*
Y-7639835D01*
X4963999Y-7656496D01*
X4947338D01*
X4963999D01*
X4980661Y-7673157D01*
Y-7689819D01*
X4963999Y-7706480D01*
X4930677D01*
X4914016Y-7689819D01*
X4204145Y-7623173D02*
X4187484Y-7606512D01*
X4154161D01*
X4137500Y-7623173D01*
Y-7689819D01*
X4154161Y-7706480D01*
X4187484D01*
X4204145Y-7689819D01*
X4287452Y-7706480D02*
Y-7606512D01*
X4237468Y-7656496D01*
X4304113D01*
X4404081Y-7706480D02*
X4337436D01*
X4404081Y-7639835D01*
Y-7623173D01*
X4387419Y-7606512D01*
X4354097D01*
X4337436Y-7623173D01*
X3579305Y-7618093D02*
X3562644Y-7601432D01*
X3529321D01*
X3512660Y-7618093D01*
Y-7684739D01*
X3529321Y-7701400D01*
X3562644D01*
X3579305Y-7684739D01*
X3662612Y-7701400D02*
Y-7601432D01*
X3612628Y-7651416D01*
X3679273D01*
X3712596Y-7701400D02*
X3745918D01*
X3729257D01*
Y-7601432D01*
X3712596Y-7618093D01*
X2929065D02*
X2912404Y-7601432D01*
X2879081D01*
X2862420Y-7618093D01*
Y-7684739D01*
X2879081Y-7701400D01*
X2912404D01*
X2929065Y-7684739D01*
X3012372Y-7701400D02*
Y-7601432D01*
X2962388Y-7651416D01*
X3029033D01*
X3062356Y-7618093D02*
X3079017Y-7601432D01*
X3112339D01*
X3129001Y-7618093D01*
Y-7684739D01*
X3112339Y-7701400D01*
X3079017D01*
X3062356Y-7684739D01*
Y-7618093D01*
X16215805Y-3467733D02*
X16199144Y-3451072D01*
X16165820D01*
X16149159Y-3467733D01*
Y-3534379D01*
X16165820Y-3551040D01*
X16199144D01*
X16215805Y-3534379D01*
X16249129Y-3467733D02*
X16265788Y-3451072D01*
X16299112D01*
X16315773Y-3467733D01*
Y-3484395D01*
X16299112Y-3501056D01*
X16282449D01*
X16299112D01*
X16315773Y-3517717D01*
Y-3534379D01*
X16299112Y-3551040D01*
X16265788D01*
X16249129Y-3534379D01*
X16349097D02*
X16365758Y-3551040D01*
X16399078D01*
X16415741Y-3534379D01*
Y-3467733D01*
X16399078Y-3451072D01*
X16365758D01*
X16349097Y-3467733D01*
Y-3484395D01*
X16365758Y-3501056D01*
X16415741D01*
X17765205Y-3467733D02*
X17748544Y-3451072D01*
X17715221D01*
X17698560Y-3467733D01*
Y-3534379D01*
X17715221Y-3551040D01*
X17748544D01*
X17765205Y-3534379D01*
X17798528Y-3467733D02*
X17815189Y-3451072D01*
X17848512D01*
X17865173Y-3467733D01*
Y-3484395D01*
X17848512Y-3501056D01*
X17831850D01*
X17848512D01*
X17865173Y-3517717D01*
Y-3534379D01*
X17848512Y-3551040D01*
X17815189D01*
X17798528Y-3534379D01*
X17898495Y-3467733D02*
X17915157Y-3451072D01*
X17948479D01*
X17965141Y-3467733D01*
Y-3484395D01*
X17948479Y-3501056D01*
X17965141Y-3517717D01*
Y-3534379D01*
X17948479Y-3551040D01*
X17915157D01*
X17898495Y-3534379D01*
Y-3517717D01*
X17915157Y-3501056D01*
X17898495Y-3484395D01*
Y-3467733D01*
X17915157Y-3501056D02*
X17948479D01*
X7038785Y-5893433D02*
X7022124Y-5876772D01*
X6988801D01*
X6972140Y-5893433D01*
Y-5960079D01*
X6988801Y-5976740D01*
X7022124D01*
X7038785Y-5960079D01*
X7072108Y-5893433D02*
X7088769Y-5876772D01*
X7122092D01*
X7138753Y-5893433D01*
Y-5910095D01*
X7122092Y-5926756D01*
X7105430D01*
X7122092D01*
X7138753Y-5943417D01*
Y-5960079D01*
X7122092Y-5976740D01*
X7088769D01*
X7072108Y-5960079D01*
X7172076Y-5876772D02*
X7238721D01*
Y-5893433D01*
X7172076Y-5960079D01*
Y-5976740D01*
X5489385Y-5893433D02*
X5472724Y-5876772D01*
X5439401D01*
X5422740Y-5893433D01*
Y-5960079D01*
X5439401Y-5976740D01*
X5472724D01*
X5489385Y-5960079D01*
X5522708Y-5893433D02*
X5539369Y-5876772D01*
X5572692D01*
X5589353Y-5893433D01*
Y-5910095D01*
X5572692Y-5926756D01*
X5556030D01*
X5572692D01*
X5589353Y-5943417D01*
Y-5960079D01*
X5572692Y-5976740D01*
X5539369D01*
X5522708Y-5960079D01*
X5689321Y-5876772D02*
X5655998Y-5893433D01*
X5622676Y-5926756D01*
Y-5960079D01*
X5639337Y-5976740D01*
X5672659D01*
X5689321Y-5960079D01*
Y-5943417D01*
X5672659Y-5926756D01*
X5622676D01*
X3958355Y-2891677D02*
X3941694Y-2875016D01*
X3908371D01*
X3891710Y-2891677D01*
Y-2958323D01*
X3908371Y-2974984D01*
X3941694D01*
X3958355Y-2958323D01*
X3991678Y-2891677D02*
X4008339Y-2875016D01*
X4041661D01*
X4058323Y-2891677D01*
Y-2908339D01*
X4041661Y-2925000D01*
X4025000D01*
X4041661D01*
X4058323Y-2941661D01*
Y-2958323D01*
X4041661Y-2974984D01*
X4008339D01*
X3991678Y-2958323D01*
X4158290Y-2875016D02*
X4091645D01*
Y-2925000D01*
X4124968Y-2908339D01*
X4141629D01*
X4158290Y-2925000D01*
Y-2958323D01*
X4141629Y-2974984D01*
X4108307D01*
X4091645Y-2958323D01*
X2690305Y-3091813D02*
X2673644Y-3075152D01*
X2640321D01*
X2623660Y-3091813D01*
Y-3158459D01*
X2640321Y-3175120D01*
X2673644D01*
X2690305Y-3158459D01*
X2723628Y-3091813D02*
X2740289Y-3075152D01*
X2773612D01*
X2790273Y-3091813D01*
Y-3108475D01*
X2773612Y-3125136D01*
X2756950D01*
X2773612D01*
X2790273Y-3141797D01*
Y-3158459D01*
X2773612Y-3175120D01*
X2740289D01*
X2723628Y-3158459D01*
X2873579Y-3175120D02*
Y-3075152D01*
X2823596Y-3125136D01*
X2890241D01*
X4239705Y-3091813D02*
X4223044Y-3075152D01*
X4189721D01*
X4173060Y-3091813D01*
Y-3158459D01*
X4189721Y-3175120D01*
X4223044D01*
X4239705Y-3158459D01*
X4273028Y-3091813D02*
X4289689Y-3075152D01*
X4323012D01*
X4339673Y-3091813D01*
Y-3108475D01*
X4323012Y-3125136D01*
X4306350D01*
X4323012D01*
X4339673Y-3141797D01*
Y-3158459D01*
X4323012Y-3175120D01*
X4289689D01*
X4273028Y-3158459D01*
X4372996Y-3091813D02*
X4389657Y-3075152D01*
X4422979D01*
X4439641Y-3091813D01*
Y-3108475D01*
X4422979Y-3125136D01*
X4406318D01*
X4422979D01*
X4439641Y-3141797D01*
Y-3158459D01*
X4422979Y-3175120D01*
X4389657D01*
X4372996Y-3158459D01*
X208354Y-5706677D02*
X191693Y-5690016D01*
X158371D01*
X141709Y-5706677D01*
Y-5773322D01*
X158371Y-5789983D01*
X191693D01*
X208354Y-5773322D01*
X241677Y-5706677D02*
X258339Y-5690016D01*
X291661D01*
X308322Y-5706677D01*
Y-5723338D01*
X291661Y-5739999D01*
X275000D01*
X291661D01*
X308322Y-5756661D01*
Y-5773322D01*
X291661Y-5789983D01*
X258339D01*
X241677Y-5773322D01*
X408290Y-5789983D02*
X341645D01*
X408290Y-5723338D01*
Y-5706677D01*
X391629Y-5690016D01*
X358306D01*
X341645Y-5706677D01*
X109665Y-3698873D02*
X93004Y-3682212D01*
X59681D01*
X43020Y-3698873D01*
Y-3765519D01*
X59681Y-3782180D01*
X93004D01*
X109665Y-3765519D01*
X142988Y-3698873D02*
X159649Y-3682212D01*
X192972D01*
X209633Y-3698873D01*
Y-3715535D01*
X192972Y-3732196D01*
X176310D01*
X192972D01*
X209633Y-3748857D01*
Y-3765519D01*
X192972Y-3782180D01*
X159649D01*
X142988Y-3765519D01*
X242956Y-3782180D02*
X276278D01*
X259617D01*
Y-3682212D01*
X242956Y-3698873D01*
X17915065Y-5868033D02*
X17898404Y-5851372D01*
X17865080D01*
X17848421Y-5868033D01*
Y-5934679D01*
X17865080Y-5951340D01*
X17898404D01*
X17915065Y-5934679D01*
X17948389Y-5868033D02*
X17965050Y-5851372D01*
X17998372D01*
X18015033Y-5868033D01*
Y-5884695D01*
X17998372Y-5901356D01*
X17981709D01*
X17998372D01*
X18015033Y-5918017D01*
Y-5934679D01*
X17998372Y-5951340D01*
X17965050D01*
X17948389Y-5934679D01*
X18048357Y-5868033D02*
X18065018Y-5851372D01*
X18098338D01*
X18115001Y-5868033D01*
Y-5934679D01*
X18098338Y-5951340D01*
X18065018D01*
X18048357Y-5934679D01*
Y-5868033D01*
X16365665D02*
X16349004Y-5851372D01*
X16315681D01*
X16299020Y-5868033D01*
Y-5934679D01*
X16315681Y-5951340D01*
X16349004D01*
X16365665Y-5934679D01*
X16465633Y-5951340D02*
X16398988D01*
X16465633Y-5884695D01*
Y-5868033D01*
X16448972Y-5851372D01*
X16415649D01*
X16398988Y-5868033D01*
X16498956Y-5934679D02*
X16515617Y-5951340D01*
X16548940D01*
X16565601Y-5934679D01*
Y-5868033D01*
X16548940Y-5851372D01*
X16515617D01*
X16498956Y-5868033D01*
Y-5884695D01*
X16515617Y-5901356D01*
X16565601D01*
X14813725Y-5868033D02*
X14797064Y-5851372D01*
X14763741D01*
X14747079Y-5868033D01*
Y-5934679D01*
X14763741Y-5951340D01*
X14797064D01*
X14813725Y-5934679D01*
X14913693Y-5951340D02*
X14847047D01*
X14913693Y-5884695D01*
Y-5868033D01*
X14897032Y-5851372D01*
X14863708D01*
X14847047Y-5868033D01*
X14947015D02*
X14963676Y-5851372D01*
X14996999D01*
X15013661Y-5868033D01*
Y-5884695D01*
X14996999Y-5901356D01*
X15013661Y-5918017D01*
Y-5934679D01*
X14996999Y-5951340D01*
X14963676D01*
X14947015Y-5934679D01*
Y-5918017D01*
X14963676Y-5901356D01*
X14947015Y-5884695D01*
Y-5868033D01*
X14963676Y-5901356D02*
X14996999D01*
X13264325Y-5868033D02*
X13247664Y-5851372D01*
X13214342D01*
X13197681Y-5868033D01*
Y-5934679D01*
X13214342Y-5951340D01*
X13247664D01*
X13264325Y-5934679D01*
X13364293Y-5951340D02*
X13297649D01*
X13364293Y-5884695D01*
Y-5868033D01*
X13347632Y-5851372D01*
X13314310D01*
X13297649Y-5868033D01*
X13397617Y-5851372D02*
X13464261D01*
Y-5868033D01*
X13397617Y-5934679D01*
Y-5951340D01*
X11714925Y-5868033D02*
X11698264Y-5851372D01*
X11664941D01*
X11648280Y-5868033D01*
Y-5934679D01*
X11664941Y-5951340D01*
X11698264D01*
X11714925Y-5934679D01*
X11814893Y-5951340D02*
X11748248D01*
X11814893Y-5884695D01*
Y-5868033D01*
X11798232Y-5851372D01*
X11764909D01*
X11748248Y-5868033D01*
X11914861Y-5851372D02*
X11881538Y-5868033D01*
X11848216Y-5901356D01*
Y-5934679D01*
X11864877Y-5951340D01*
X11898199D01*
X11914861Y-5934679D01*
Y-5918017D01*
X11898199Y-5901356D01*
X11848216D01*
X10165525Y-5868033D02*
X10148864Y-5851372D01*
X10115541D01*
X10098880Y-5868033D01*
Y-5934679D01*
X10115541Y-5951340D01*
X10148864D01*
X10165525Y-5934679D01*
X10265493Y-5951340D02*
X10198848D01*
X10265493Y-5884695D01*
Y-5868033D01*
X10248832Y-5851372D01*
X10215509D01*
X10198848Y-5868033D01*
X10365461Y-5851372D02*
X10298816D01*
Y-5901356D01*
X10332138Y-5884695D01*
X10348799D01*
X10365461Y-5901356D01*
Y-5934679D01*
X10348799Y-5951340D01*
X10315477D01*
X10298816Y-5934679D01*
X8613585Y-5868033D02*
X8596924Y-5851372D01*
X8563601D01*
X8546940Y-5868033D01*
Y-5934679D01*
X8563601Y-5951340D01*
X8596924D01*
X8613585Y-5934679D01*
X8713553Y-5951340D02*
X8646908D01*
X8713553Y-5884695D01*
Y-5868033D01*
X8696892Y-5851372D01*
X8663569D01*
X8646908Y-5868033D01*
X8796859Y-5951340D02*
Y-5851372D01*
X8746876Y-5901356D01*
X8813521D01*
X2339785Y-8067673D02*
X2323124Y-8051012D01*
X2289801D01*
X2273140Y-8067673D01*
Y-8134319D01*
X2289801Y-8150980D01*
X2323124D01*
X2339785Y-8134319D01*
X2439753Y-8150980D02*
X2373108D01*
X2439753Y-8084335D01*
Y-8067673D01*
X2423092Y-8051012D01*
X2389769D01*
X2373108Y-8067673D01*
X2473076D02*
X2489737Y-8051012D01*
X2523059D01*
X2539721Y-8067673D01*
Y-8084335D01*
X2523059Y-8100996D01*
X2506398D01*
X2523059D01*
X2539721Y-8117657D01*
Y-8134319D01*
X2523059Y-8150980D01*
X2489737D01*
X2473076Y-8134319D01*
X3983355Y-8116677D02*
X3966694Y-8100016D01*
X3933371D01*
X3916710Y-8116677D01*
Y-8183322D01*
X3933371Y-8199984D01*
X3966694D01*
X3983355Y-8183322D01*
X4083323Y-8199984D02*
X4016678D01*
X4083323Y-8133339D01*
Y-8116677D01*
X4066661Y-8100016D01*
X4033339D01*
X4016678Y-8116677D01*
X4183290Y-8199984D02*
X4116645D01*
X4183290Y-8133339D01*
Y-8116677D01*
X4166629Y-8100016D01*
X4133307D01*
X4116645Y-8116677D01*
X5438585Y-8067673D02*
X5421924Y-8051012D01*
X5388601D01*
X5371940Y-8067673D01*
Y-8134319D01*
X5388601Y-8150980D01*
X5421924D01*
X5438585Y-8134319D01*
X5538553Y-8150980D02*
X5471908D01*
X5538553Y-8084335D01*
Y-8067673D01*
X5521892Y-8051012D01*
X5488569D01*
X5471908Y-8067673D01*
X5571876Y-8150980D02*
X5605198D01*
X5588537D01*
Y-8051012D01*
X5571876Y-8067673D01*
X6990525D02*
X6973864Y-8051012D01*
X6940541D01*
X6923880Y-8067673D01*
Y-8134319D01*
X6940541Y-8150980D01*
X6973864D01*
X6990525Y-8134319D01*
X7090493Y-8150980D02*
X7023848D01*
X7090493Y-8084335D01*
Y-8067673D01*
X7073832Y-8051012D01*
X7040509D01*
X7023848Y-8067673D01*
X7123816D02*
X7140477Y-8051012D01*
X7173799D01*
X7190461Y-8067673D01*
Y-8134319D01*
X7173799Y-8150980D01*
X7140477D01*
X7123816Y-8134319D01*
Y-8067673D01*
X8539925D02*
X8523264Y-8051012D01*
X8489941D01*
X8473280Y-8067673D01*
Y-8134319D01*
X8489941Y-8150980D01*
X8523264D01*
X8539925Y-8134319D01*
X8573248Y-8150980D02*
X8606570D01*
X8589909D01*
Y-8051012D01*
X8573248Y-8067673D01*
X8656554Y-8134319D02*
X8673216Y-8150980D01*
X8706538D01*
X8723199Y-8134319D01*
Y-8067673D01*
X8706538Y-8051012D01*
X8673216D01*
X8656554Y-8067673D01*
Y-8084335D01*
X8673216Y-8100996D01*
X8723199D01*
X10089325Y-8067673D02*
X10072664Y-8051012D01*
X10039341D01*
X10022680Y-8067673D01*
Y-8134319D01*
X10039341Y-8150980D01*
X10072664D01*
X10089325Y-8134319D01*
X10122648Y-8150980D02*
X10155970D01*
X10139309D01*
Y-8051012D01*
X10122648Y-8067673D01*
X10205954D02*
X10222616Y-8051012D01*
X10255938D01*
X10272599Y-8067673D01*
Y-8084335D01*
X10255938Y-8100996D01*
X10272599Y-8117657D01*
Y-8134319D01*
X10255938Y-8150980D01*
X10222616D01*
X10205954Y-8134319D01*
Y-8117657D01*
X10222616Y-8100996D01*
X10205954Y-8084335D01*
Y-8067673D01*
X10222616Y-8100996D02*
X10255938D01*
X11638725Y-8067673D02*
X11622064Y-8051012D01*
X11588741D01*
X11572080Y-8067673D01*
Y-8134319D01*
X11588741Y-8150980D01*
X11622064D01*
X11638725Y-8134319D01*
X11672048Y-8150980D02*
X11705370D01*
X11688709D01*
Y-8051012D01*
X11672048Y-8067673D01*
X11755354Y-8051012D02*
X11821999D01*
Y-8067673D01*
X11755354Y-8134319D01*
Y-8150980D01*
X13190665Y-8067673D02*
X13174004Y-8051012D01*
X13140681D01*
X13124020Y-8067673D01*
Y-8134319D01*
X13140681Y-8150980D01*
X13174004D01*
X13190665Y-8134319D01*
X13223988Y-8150980D02*
X13257310D01*
X13240649D01*
Y-8051012D01*
X13223988Y-8067673D01*
X13373940Y-8051012D02*
X13340617Y-8067673D01*
X13307294Y-8100996D01*
Y-8134319D01*
X13323956Y-8150980D01*
X13357278D01*
X13373940Y-8134319D01*
Y-8117657D01*
X13357278Y-8100996D01*
X13307294D01*
X14714665Y-8067673D02*
X14698004Y-8051012D01*
X14664680D01*
X14648019Y-8067673D01*
Y-8134319D01*
X14664680Y-8150980D01*
X14698004D01*
X14714665Y-8134319D01*
X14747987Y-8150980D02*
X14781310D01*
X14764648D01*
Y-8051012D01*
X14747987Y-8067673D01*
X14897939Y-8051012D02*
X14831294D01*
Y-8100996D01*
X14864616Y-8084335D01*
X14881277D01*
X14897939Y-8100996D01*
Y-8134319D01*
X14881277Y-8150980D01*
X14847955D01*
X14831294Y-8134319D01*
X16264066Y-8067673D02*
X16247404Y-8051012D01*
X16214081D01*
X16197420Y-8067673D01*
Y-8134319D01*
X16214081Y-8150980D01*
X16247404D01*
X16264066Y-8134319D01*
X16297388Y-8150980D02*
X16330710D01*
X16314049D01*
Y-8051012D01*
X16297388Y-8067673D01*
X16430678Y-8150980D02*
Y-8051012D01*
X16380695Y-8100996D01*
X16447339D01*
X17915065Y-8072753D02*
X17898404Y-8056092D01*
X17865080D01*
X17848421Y-8072753D01*
Y-8139399D01*
X17865080Y-8156060D01*
X17898404D01*
X17915065Y-8139399D01*
X17948389Y-8156060D02*
X17981709D01*
X17965050D01*
Y-8056092D01*
X17948389Y-8072753D01*
X18031694D02*
X18048357Y-8056092D01*
X18081677D01*
X18098338Y-8072753D01*
Y-8089415D01*
X18081677Y-8106076D01*
X18065018D01*
X18081677D01*
X18098338Y-8122737D01*
Y-8139399D01*
X18081677Y-8156060D01*
X18048357D01*
X18031694Y-8139399D01*
X10291685Y-4866678D02*
X10275024Y-4850016D01*
X10241702D01*
X10225040Y-4866678D01*
Y-4933323D01*
X10241702Y-4949984D01*
X10275024D01*
X10291685Y-4933323D01*
X10325008Y-4949984D02*
X10358331D01*
X10341669D01*
Y-4850016D01*
X10325008Y-4866678D01*
X10474959Y-4949984D02*
X10408314D01*
X10474959Y-4883339D01*
Y-4866678D01*
X10458298Y-4850016D01*
X10424976D01*
X10408314Y-4866678D01*
X11448348Y-2966677D02*
X11431687Y-2950016D01*
X11398364D01*
X11381703Y-2966677D01*
Y-3033322D01*
X11398364Y-3049984D01*
X11431687D01*
X11448348Y-3033322D01*
X11481670Y-3049984D02*
X11514993D01*
X11498332D01*
Y-2950016D01*
X11481670Y-2966677D01*
X11564977Y-3049984D02*
X11598299D01*
X11581638D01*
Y-2950016D01*
X11564977Y-2966677D01*
X6391685Y-3541677D02*
X6375024Y-3525016D01*
X6341702D01*
X6325040Y-3541677D01*
Y-3608322D01*
X6341702Y-3624984D01*
X6375024D01*
X6391685Y-3608322D01*
X6425008Y-3624984D02*
X6458331D01*
X6441670D01*
Y-3525016D01*
X6425008Y-3541677D01*
X6508315D02*
X6524976Y-3525016D01*
X6558299D01*
X6574960Y-3541677D01*
Y-3608322D01*
X6558299Y-3624984D01*
X6524976D01*
X6508315Y-3608322D01*
Y-3541677D01*
X7258339D02*
X7241677Y-3525016D01*
X7208355D01*
X7191694Y-3541677D01*
Y-3608322D01*
X7208355Y-3624984D01*
X7241677D01*
X7258339Y-3608322D01*
X7291661D02*
X7308323Y-3624984D01*
X7341645D01*
X7358306Y-3608322D01*
Y-3541677D01*
X7341645Y-3525016D01*
X7308323D01*
X7291661Y-3541677D01*
Y-3558339D01*
X7308323Y-3575000D01*
X7358306D01*
X12608339Y-4241678D02*
X12591677Y-4225016D01*
X12558355D01*
X12541693Y-4241678D01*
Y-4308323D01*
X12558355Y-4324984D01*
X12591677D01*
X12608339Y-4308323D01*
X12641661Y-4241678D02*
X12658323Y-4225016D01*
X12691645D01*
X12708306Y-4241678D01*
Y-4258339D01*
X12691645Y-4275000D01*
X12708306Y-4291661D01*
Y-4308323D01*
X12691645Y-4324984D01*
X12658323D01*
X12641661Y-4308323D01*
Y-4291661D01*
X12658323Y-4275000D01*
X12641661Y-4258339D01*
Y-4241678D01*
X12658323Y-4275000D02*
X12691645D01*
X12883315Y-3973347D02*
X12899976Y-3956686D01*
Y-3923363D01*
X12883315Y-3906702D01*
X12816669D01*
X12800008Y-3923363D01*
Y-3956686D01*
X12816669Y-3973347D01*
X12899976Y-4006670D02*
Y-4073315D01*
X12883315D01*
X12816669Y-4006670D01*
X12800008D01*
X12508338Y-3241678D02*
X12491677Y-3225016D01*
X12458355D01*
X12441693Y-3241678D01*
Y-3308323D01*
X12458355Y-3324984D01*
X12491677D01*
X12508338Y-3308323D01*
X12608306Y-3225016D02*
X12574984Y-3241678D01*
X12541661Y-3275000D01*
Y-3308323D01*
X12558323Y-3324984D01*
X12591645D01*
X12608306Y-3308323D01*
Y-3291661D01*
X12591645Y-3275000D01*
X12541661D01*
X12498338Y-2891677D02*
X12481677Y-2875016D01*
X12448355D01*
X12431693Y-2891677D01*
Y-2958322D01*
X12448355Y-2974984D01*
X12481677D01*
X12498338Y-2958322D01*
X12598306Y-2875016D02*
X12531661D01*
Y-2925000D01*
X12564984Y-2908339D01*
X12581645D01*
X12598306Y-2925000D01*
Y-2958322D01*
X12581645Y-2974984D01*
X12548322D01*
X12531661Y-2958322D01*
X1108339Y-491677D02*
X1091678Y-475016D01*
X1058355D01*
X1041694Y-491677D01*
Y-558322D01*
X1058355Y-574984D01*
X1091678D01*
X1108339Y-558322D01*
X1191645Y-574984D02*
Y-475016D01*
X1141661Y-525000D01*
X1208306D01*
X3483339Y-1141677D02*
X3466678Y-1125016D01*
X3433355D01*
X3416694Y-1141677D01*
Y-1208322D01*
X3433355Y-1224984D01*
X3466678D01*
X3483339Y-1208322D01*
X3516661Y-1141677D02*
X3533323Y-1125016D01*
X3566645D01*
X3583307Y-1141677D01*
Y-1158339D01*
X3566645Y-1175000D01*
X3549984D01*
X3566645D01*
X3583307Y-1191661D01*
Y-1208322D01*
X3566645Y-1224984D01*
X3533323D01*
X3516661Y-1208322D01*
D77*
X18974998Y-9840000D02*
D03*
X13400015Y-9835001D02*
D03*
X11850018D02*
D03*
X10300022D02*
D03*
X8750025D02*
D03*
X7200028D02*
D03*
X5650031D02*
D03*
X4100034D02*
D03*
X2550037D02*
D03*
X8824961Y-6215000D02*
D03*
X10374958D02*
D03*
X11924955D02*
D03*
X13474953D02*
D03*
X15024950D02*
D03*
X16574947D02*
D03*
X18124944D02*
D03*
X6550033Y-6240000D02*
D03*
X8100030D02*
D03*
X18824973Y-5235000D02*
D03*
X17274976D02*
D03*
D78*
X18125002Y-9840000D02*
D03*
X14250014Y-9835001D02*
D03*
X12700017D02*
D03*
X11150020D02*
D03*
X9600023D02*
D03*
X8050026D02*
D03*
X6500029D02*
D03*
X4950033D02*
D03*
X3400036D02*
D03*
X9674960Y-6215000D02*
D03*
X11224957D02*
D03*
X12774954D02*
D03*
X14324951D02*
D03*
X15874947D02*
D03*
X17424944D02*
D03*
X18974940D02*
D03*
X5700034Y-6239999D02*
D03*
X7250031D02*
D03*
X17974974Y-5235001D02*
D03*
X16424977D02*
D03*
D79*
X17325008Y-9835001D02*
D03*
X15775011D02*
D03*
X5299988Y-4860000D02*
D03*
X3749991D02*
D03*
D80*
X16475009Y-9835001D02*
D03*
X14925012D02*
D03*
X4449989Y-4860000D02*
D03*
X2899992D02*
D03*
D81*
X240001Y-4974996D02*
D03*
Y-4125000D02*
D03*
%TF.MD5,75483808f8a827ced07ef5492c6b585d*%
M02*
