%TF.GenerationSoftware,Altium Limited,Altium Designer,20.0.13 (296)*%
G04 Layer_Color=128*
%FSLAX45Y45*%
%MOMM*%
%TF.FileFunction,Drillmap*%
%TF.Part,Single*%
G01*
G75*
%TA.AperFunction,NonConductor*%
%ADD72C,0.12700*%
D72*
X9799500Y-360000D02*
X9950500D01*
X9875000Y-435500D02*
Y-284500D01*
X9049500Y-360000D02*
X9200500D01*
X9125000Y-435500D02*
Y-284500D01*
X8299500Y-360000D02*
X8450500D01*
X8375000Y-435500D02*
Y-284500D01*
X7299500Y-360000D02*
X7450500D01*
X7375000Y-435500D02*
Y-284500D01*
X7210000Y-4025000D02*
X7290000D01*
X7250000Y-4065000D02*
Y-3985000D01*
X7210000Y-4225000D02*
X7290000D01*
X7250000Y-4265000D02*
Y-4185000D01*
X6385000Y-4050000D02*
X6465000D01*
X6425000Y-4090000D02*
Y-4010000D01*
X6385000Y-4250000D02*
X6465000D01*
X6425000Y-4290000D02*
Y-4210000D01*
X19475000Y-350000D02*
X19825000D01*
X19650000Y-525000D02*
Y-175000D01*
X19475000Y-9850000D02*
X19825000D01*
X19650000Y-10025000D02*
Y-9675000D01*
X175000Y-350000D02*
X525000D01*
X350000Y-525000D02*
Y-175000D01*
X175000Y-9850000D02*
X525000D01*
X350000Y-10025000D02*
Y-9675000D01*
X660000Y-1150000D02*
X790000D01*
X725000Y-1215000D02*
Y-1085000D01*
X660000Y-1658000D02*
X790000D01*
X725000Y-1723000D02*
Y-1593000D01*
X685000Y-8467000D02*
X815000D01*
X750000Y-8532000D02*
Y-8402000D01*
X685000Y-8975000D02*
X815000D01*
X750000Y-9040000D02*
Y-8910000D01*
X2140900Y-1575000D02*
X2217100D01*
X2179000Y-1613100D02*
Y-1536900D01*
X1632900Y-1575000D02*
X1709100D01*
X1671000Y-1613100D02*
Y-1536900D01*
X10082500Y-1225000D02*
X10167500D01*
X10125000Y-1267500D02*
Y-1182500D01*
X10082500Y-1025000D02*
X10167500D01*
X10125000Y-1067500D02*
Y-982500D01*
X7907500Y-1400000D02*
X7992500D01*
X7950000Y-1442500D02*
Y-1357500D01*
X8107500Y-1400000D02*
X8192500D01*
X8150000Y-1442500D02*
Y-1357500D01*
X15389999Y-525000D02*
X15460001D01*
X15425000Y-560000D02*
Y-490000D01*
X15395000Y-1025000D02*
X15455000D01*
X15425000Y-1055000D02*
Y-995000D01*
X15395000Y-1525000D02*
X15455000D01*
X15425000Y-1555000D02*
Y-1495000D01*
X15395000Y-2025000D02*
X15455000D01*
X15425000Y-2055000D02*
Y-1995000D01*
X15395000Y-2525000D02*
X15455000D01*
X15425000Y-2555000D02*
Y-2495000D01*
X15395000Y-3025000D02*
X15455000D01*
X15425000Y-3055000D02*
Y-2995000D01*
X17895000Y-525000D02*
X17955000D01*
X17925000Y-555000D02*
Y-495000D01*
X17895000Y-1025000D02*
X17955000D01*
X17925000Y-1055000D02*
Y-995000D01*
X17895000Y-1525000D02*
X17955000D01*
X17925000Y-1555000D02*
Y-1495000D01*
X17895000Y-2025000D02*
X17955000D01*
X17925000Y-2055000D02*
Y-1995000D01*
X17895000Y-2525000D02*
X17955000D01*
X17925000Y-2555000D02*
Y-2495000D01*
X17895000Y-3025000D02*
X17955000D01*
X17925000Y-3055000D02*
Y-2995000D01*
X2370000Y-700000D02*
X2480000D01*
X2425000Y-755000D02*
Y-645000D01*
X3370000Y-700000D02*
X3480000D01*
X3425000Y-755000D02*
Y-645000D01*
X3370000Y-250000D02*
X3480000D01*
X3425000Y-305000D02*
Y-195000D01*
X2370000Y-250000D02*
X2480000D01*
X2425000Y-305000D02*
Y-195000D01*
X5820000Y-1345000D02*
X5930000D01*
X5875000Y-1400000D02*
Y-1290000D01*
X5070000Y-1345000D02*
X5180000D01*
X5125000Y-1400000D02*
Y-1290000D01*
X5070000Y-275000D02*
X5180000D01*
X5125000Y-330000D02*
Y-220000D01*
X5820000Y-275000D02*
X5930000D01*
X5875000Y-330000D02*
Y-220000D01*
X14078000Y-425000D02*
X14188000D01*
X14133000Y-480000D02*
Y-370000D01*
X13824001Y-425000D02*
X13934000D01*
X13878999Y-480000D02*
Y-370000D01*
X13570000Y-425000D02*
X13680000D01*
X13625000Y-480000D02*
Y-370000D01*
X19215001Y-2192500D02*
X19225002D01*
X19220001Y-2197500D02*
Y-2187500D01*
X19215001Y-5192500D02*
X19225002D01*
X19220001Y-5197500D02*
Y-5187500D01*
X19215001Y-8192500D02*
X19225002D01*
X19220001Y-8197500D02*
Y-8187500D01*
X17715001Y-2192500D02*
X17725002D01*
X17720001Y-2197500D02*
Y-2187500D01*
X17715001Y-5192500D02*
X17725002D01*
X17720001Y-5197500D02*
Y-5187500D01*
X16215001Y-2192500D02*
X16225002D01*
X16220001Y-2197500D02*
Y-2187500D01*
X15465001Y-3692500D02*
X15475002D01*
X15470001Y-3697500D02*
Y-3687500D01*
X16215001Y-5192500D02*
X16225002D01*
X16220001Y-5197500D02*
Y-5187500D01*
X14715001Y-5192500D02*
X14725002D01*
X14720001Y-5197500D02*
Y-5187500D01*
X13965001Y-9692500D02*
X13975000D01*
X13970001Y-9697500D02*
Y-9687500D01*
X13214999Y-5192500D02*
X13225000D01*
X13220000Y-5197500D02*
Y-5187500D01*
X12465000Y-9692500D02*
X12475000D01*
X12470000Y-9697500D02*
Y-9687500D01*
X11715000Y-5192500D02*
X11725000D01*
X11720000Y-5197500D02*
Y-5187500D01*
X10965000Y-6692500D02*
X10975000D01*
X10970000Y-6697500D02*
Y-6687500D01*
X10965000Y-9692500D02*
X10975000D01*
X10970000Y-9697500D02*
Y-9687500D01*
X10215000Y-2192500D02*
X10225000D01*
X10220000Y-2197500D02*
Y-2187500D01*
X9465000Y-3692500D02*
X9475000D01*
X9470000Y-3697500D02*
Y-3687500D01*
X10215000Y-5192500D02*
X10225000D01*
X10220000Y-5197500D02*
Y-5187500D01*
X9465000Y-6692500D02*
X9475000D01*
X9470000Y-6697500D02*
Y-6687500D01*
X9465000Y-9692500D02*
X9475000D01*
X9470000Y-9697500D02*
Y-9687500D01*
X8715000Y-2192500D02*
X8725000D01*
X8720000Y-2197500D02*
Y-2187500D01*
X7965000Y-3692500D02*
X7975000D01*
X7970000Y-3697500D02*
Y-3687500D01*
X8715000Y-5192500D02*
X8725000D01*
X8720000Y-5197500D02*
Y-5187500D01*
X7965000Y-6692500D02*
X7975000D01*
X7970000Y-6697500D02*
Y-6687500D01*
X7965000Y-9692500D02*
X7975000D01*
X7970000Y-9697500D02*
Y-9687500D01*
X7215000Y-2192500D02*
X7225000D01*
X7220000Y-2197500D02*
Y-2187500D01*
X6465000Y-3692500D02*
X6475000D01*
X6470000Y-3697500D02*
Y-3687500D01*
X7215000Y-5192500D02*
X7225000D01*
X7220000Y-5197500D02*
Y-5187500D01*
X6465000Y-6692500D02*
X6475000D01*
X6470000Y-6697500D02*
Y-6687500D01*
X6465000Y-9692500D02*
X6475000D01*
X6470000Y-9697500D02*
Y-9687500D01*
X5715000Y-2192500D02*
X5725000D01*
X5720000Y-2197500D02*
Y-2187500D01*
X5715000Y-5192500D02*
X5725000D01*
X5720000Y-5197500D02*
Y-5187500D01*
X4965000Y-9692500D02*
X4975000D01*
X4970000Y-9697500D02*
Y-9687500D01*
X4215000Y-2192500D02*
X4225000D01*
X4220000Y-2197500D02*
Y-2187500D01*
X4215000Y-5192500D02*
X4225000D01*
X4220000Y-5197500D02*
Y-5187500D01*
X3465000Y-9692500D02*
X3475000D01*
X3470000Y-9697500D02*
Y-9687500D01*
X2715000Y-2192500D02*
X2725000D01*
X2720000Y-2197500D02*
Y-2187500D01*
X1965000Y-6692500D02*
X1975000D01*
X1970000Y-6697500D02*
Y-6687500D01*
X1965000Y-9692500D02*
X1975000D01*
X1970000Y-9697500D02*
Y-9687500D01*
X1215000Y-2192500D02*
X1225000D01*
X1220000Y-2197500D02*
Y-2187500D01*
X1215000Y-5192500D02*
X1225000D01*
X1220000Y-5197500D02*
Y-5187500D01*
X465000Y-6692500D02*
X475000D01*
X470000Y-6697500D02*
Y-6687500D01*
X1215000Y-8192500D02*
X1225000D01*
X1220000Y-8197500D02*
Y-8187500D01*
X11962300Y-3125000D02*
X11987700D01*
X11975000Y-3137700D02*
Y-3112300D01*
X11987300Y-3100000D02*
X12012700D01*
X12000000Y-3112700D02*
Y-3087300D01*
X2882908Y-6087724D02*
X2908308D01*
X2895608Y-6100424D02*
Y-6075024D01*
X6094504Y-6331801D02*
X6119904D01*
X6107204Y-6344501D02*
Y-6319101D01*
X4387506Y-6293301D02*
X4412906D01*
X4400206Y-6306001D02*
Y-6280601D01*
X4294504Y-6031801D02*
X4319904D01*
X4307204Y-6044501D02*
Y-6019101D01*
X2962300Y-6000000D02*
X2987700D01*
X2975000Y-6012700D02*
Y-5987300D01*
X2962300Y-5525000D02*
X2987700D01*
X2975000Y-5537700D02*
Y-5512300D01*
X3282908Y-5037725D02*
X3308308D01*
X3295608Y-5050425D02*
Y-5025025D01*
X3307908Y-4712725D02*
X3333308D01*
X3320608Y-4725425D02*
Y-4700025D01*
X2332908Y-3437725D02*
X2358308D01*
X2345608Y-3450425D02*
Y-3425025D01*
X2257908Y-5312724D02*
X2283308D01*
X2270608Y-5325424D02*
Y-5300024D01*
X2612300Y-6062700D02*
X2637700D01*
X2625000Y-6075400D02*
Y-6050000D01*
X2632908Y-6537725D02*
X2658308D01*
X2645608Y-6550425D02*
Y-6525025D01*
X4982908Y-5712725D02*
X5008308D01*
X4995608Y-5725425D02*
Y-5700025D01*
X4432908Y-5862725D02*
X4458308D01*
X4445608Y-5875425D02*
Y-5850025D01*
X10732908Y-1212725D02*
X10758308D01*
X10745608Y-1225425D02*
Y-1200025D01*
X10707908Y-1237725D02*
X10733308D01*
X10720608Y-1250425D02*
Y-1225025D01*
X9557302Y-3802002D02*
X9582702D01*
X9570002Y-3814702D02*
Y-3789302D01*
X12132908Y-3862725D02*
X12158308D01*
X12145608Y-3875425D02*
Y-3850025D01*
X12127906Y-3887725D02*
X12153306D01*
X12140606Y-3900425D02*
Y-3875025D01*
X12157908Y-3562725D02*
X12183308D01*
X12170608Y-3575425D02*
Y-3550025D01*
X12132908Y-3562725D02*
X12158308D01*
X12145608Y-3575425D02*
Y-3550025D01*
X11032908Y-1162725D02*
X11058308D01*
X11045608Y-1175425D02*
Y-1150025D01*
X10332908Y-3987725D02*
X10358308D01*
X10345608Y-4000425D02*
Y-3975025D01*
X11082908Y-3587725D02*
X11108308D01*
X11095608Y-3600425D02*
Y-3575025D01*
X11207908Y-3012725D02*
X11233308D01*
X11220608Y-3025425D02*
Y-3000025D01*
X12192908Y-1912724D02*
X12218308D01*
X12205608Y-1925424D02*
Y-1900024D01*
X12157908Y-1912725D02*
X12183308D01*
X12170608Y-1925425D02*
Y-1900025D01*
X12182908Y-2787725D02*
X12208308D01*
X12195608Y-2800425D02*
Y-2775025D01*
X12157908Y-2787725D02*
X12183308D01*
X12170608Y-2800425D02*
Y-2775025D01*
X12582908Y-3137725D02*
X12608308D01*
X12595608Y-3150425D02*
Y-3125025D01*
X12557908Y-3162725D02*
X12583308D01*
X12570608Y-3175425D02*
Y-3150025D01*
X12812300Y-3100000D02*
X12837700D01*
X12825000Y-3112700D02*
Y-3087300D01*
X13107909Y-3712725D02*
X13133308D01*
X13120609Y-3725425D02*
Y-3700025D01*
X13082909Y-3712725D02*
X13108308D01*
X13095609Y-3725425D02*
Y-3700025D01*
X12832909Y-3662725D02*
X12858308D01*
X12845609Y-3675425D02*
Y-3650025D01*
X13682909Y-3287725D02*
X13708308D01*
X13695609Y-3300425D02*
Y-3275025D01*
X13997914Y-3257726D02*
X14023314D01*
X14010614Y-3270426D02*
Y-3245026D01*
X13182909Y-3437725D02*
X13208308D01*
X13195609Y-3450425D02*
Y-3425025D01*
X13657909Y-3312725D02*
X13683308D01*
X13670609Y-3325425D02*
Y-3300025D01*
X12782908Y-3112725D02*
X12808308D01*
X12795608Y-3125425D02*
Y-3100025D01*
X11232908Y-3012724D02*
X11258308D01*
X11245608Y-3025424D02*
Y-3000024D01*
X13132909Y-2162725D02*
X13158308D01*
X13145609Y-2175425D02*
Y-2150025D01*
X3819505Y-5681801D02*
X3844905D01*
X3832205Y-5694501D02*
Y-5669101D01*
X1882908Y-6287725D02*
X1908308D01*
X1895608Y-6300425D02*
Y-6275025D01*
X1757908Y-6637725D02*
X1783308D01*
X1770608Y-6650425D02*
Y-6625025D01*
X1607908Y-7262725D02*
X1633308D01*
X1620608Y-7275425D02*
Y-7250025D01*
X2212300Y-5675000D02*
X2237700D01*
X2225000Y-5687700D02*
Y-5662300D01*
X2712300Y-5100000D02*
X2737700D01*
X2725000Y-5112700D02*
Y-5087300D01*
X2512300Y-5150000D02*
X2537700D01*
X2525000Y-5162700D02*
Y-5137300D01*
X1557908Y-5412725D02*
X1583308D01*
X1570608Y-5425425D02*
Y-5400025D01*
X12427298Y-825000D02*
X12452698D01*
X12439998Y-837700D02*
Y-812300D01*
X11092914Y-3545227D02*
X11118314D01*
X11105614Y-3557927D02*
Y-3532527D01*
X10337299Y-4024999D02*
X10362699D01*
X10349999Y-4037699D02*
Y-4012299D01*
X3782908Y-7712724D02*
X3808308D01*
X3795608Y-7725424D02*
Y-7700024D01*
X3557908Y-6637725D02*
X3583308D01*
X3570608Y-6650425D02*
Y-6625025D01*
X2682908Y-5738198D02*
X2708308D01*
X2695608Y-5750898D02*
Y-5725498D01*
X3687300Y-2975000D02*
X3712700D01*
X3700000Y-2987700D02*
Y-2962300D01*
X2863901Y-5803201D02*
X2889301D01*
X2876601Y-5815901D02*
Y-5790501D01*
X2787291Y-5499991D02*
X2812691D01*
X2799991Y-5512691D02*
Y-5487291D01*
%TF.MD5,f69282f16d562210f270e96264a789a6*%
M02*
