%TF.GenerationSoftware,Altium Limited,Altium Designer,20.0.13 (296)*%
G04 Layer_Color=8421504*
%FSLAX45Y45*%
%MOMM*%
%TF.FileFunction,Paste,Top*%
%TF.Part,Single*%
G01*
G75*
%TA.AperFunction,SMDPad,CuDef*%
%ADD10R,8.38000X10.66000*%
%ADD11R,3.81000X2.03200*%
%ADD12R,3.00000X4.20000*%
%ADD13O,1.78000X0.42000*%
%ADD14R,2.00000X7.00000*%
%ADD15R,7.00000X2.00000*%
%ADD16R,2.50000X2.30000*%
%ADD17R,2.30000X2.50000*%
%ADD18R,3.40000X2.40000*%
%ADD19O,1.05000X0.45000*%
%ADD20R,2.50000X1.70000*%
%ADD21R,2.00000X3.50000*%
%ADD22R,2.50000X1.40000*%
%ADD23R,1.40000X2.50000*%
%ADD24R,1.00000X1.55000*%
%ADD25R,1.20000X1.80000*%
%ADD26R,1.10000X1.00000*%
%ADD27O,1.45000X0.60000*%
%ADD28R,1.80000X1.20000*%
%ADD29R,1.00000X1.10000*%
%ADD30O,2.10000X1.40000*%
%ADD31R,0.80000X0.80000*%
%ADD32R,0.80000X0.80000*%
%ADD33R,0.60000X0.50000*%
D10*
X13550000Y-1925000D02*
D03*
D11*
X14660001Y-2179000D02*
D03*
Y-1671000D02*
D03*
D12*
X3400000Y-5775000D02*
D03*
D13*
X3697000Y-6067500D02*
D03*
Y-6002500D02*
D03*
Y-5937500D02*
D03*
Y-5872500D02*
D03*
Y-5807500D02*
D03*
Y-5742500D02*
D03*
Y-5677500D02*
D03*
Y-5612500D02*
D03*
Y-5547500D02*
D03*
Y-5482500D02*
D03*
X3103000Y-6067500D02*
D03*
Y-6002500D02*
D03*
Y-5937500D02*
D03*
Y-5872500D02*
D03*
Y-5807500D02*
D03*
Y-5742500D02*
D03*
Y-5677500D02*
D03*
Y-5612500D02*
D03*
Y-5547500D02*
D03*
Y-5482500D02*
D03*
D14*
X18550000Y-9675000D02*
D03*
Y-8575000D02*
D03*
X16900008Y-9670001D02*
D03*
Y-8570001D02*
D03*
X15350011Y-9670001D02*
D03*
Y-8570001D02*
D03*
X13825015Y-9670001D02*
D03*
Y-8570001D02*
D03*
X12275018Y-9670001D02*
D03*
Y-8570001D02*
D03*
X10725021Y-9670001D02*
D03*
Y-8570001D02*
D03*
X9175024Y-9670001D02*
D03*
Y-8570001D02*
D03*
X7625027Y-9670001D02*
D03*
Y-8570001D02*
D03*
X6075030Y-9670001D02*
D03*
Y-8570001D02*
D03*
X4525033Y-9670001D02*
D03*
Y-8570001D02*
D03*
X2975036Y-9670001D02*
D03*
Y-8570001D02*
D03*
X9249961Y-6379999D02*
D03*
Y-7479999D02*
D03*
X10799958Y-6379999D02*
D03*
Y-7479999D02*
D03*
X12349954Y-6379999D02*
D03*
Y-7479999D02*
D03*
X13899951Y-6379999D02*
D03*
Y-7479999D02*
D03*
X15449948Y-6379999D02*
D03*
Y-7479999D02*
D03*
X16999945Y-6379999D02*
D03*
Y-7479999D02*
D03*
X18549942Y-6379999D02*
D03*
Y-7479999D02*
D03*
X4874988Y-4695001D02*
D03*
Y-3595001D02*
D03*
X3324992Y-4695001D02*
D03*
Y-3595001D02*
D03*
X6125033Y-6404999D02*
D03*
Y-7504999D02*
D03*
X7675030Y-6404999D02*
D03*
Y-7504999D02*
D03*
X18399973Y-5070001D02*
D03*
Y-3970001D02*
D03*
X16849976Y-5070001D02*
D03*
Y-3970001D02*
D03*
D15*
X404999Y-4549998D02*
D03*
X1504999D02*
D03*
D16*
X11200000Y-425000D02*
D03*
X10760000D02*
D03*
X11830000D02*
D03*
X12270000D02*
D03*
X1515000Y-5500000D02*
D03*
X1075000D02*
D03*
D17*
X11750000Y-1755000D02*
D03*
Y-2195000D02*
D03*
D18*
X675000Y-2550000D02*
D03*
Y-3370000D02*
D03*
D19*
X1593000Y-6909500D02*
D03*
Y-7036500D02*
D03*
Y-7163500D02*
D03*
Y-7290500D02*
D03*
X2157000Y-6909500D02*
D03*
Y-7036500D02*
D03*
Y-7163500D02*
D03*
Y-7290500D02*
D03*
X1593000Y-6284500D02*
D03*
Y-6411500D02*
D03*
Y-6538500D02*
D03*
Y-6665500D02*
D03*
X2157000Y-6284500D02*
D03*
Y-6411500D02*
D03*
Y-6538500D02*
D03*
Y-6665500D02*
D03*
X4443000Y-6309500D02*
D03*
Y-6436500D02*
D03*
Y-6563500D02*
D03*
Y-6690500D02*
D03*
X5007000Y-6309500D02*
D03*
Y-6436500D02*
D03*
Y-6563500D02*
D03*
Y-6690500D02*
D03*
X4443000Y-6959500D02*
D03*
Y-7086500D02*
D03*
Y-7213500D02*
D03*
Y-7340500D02*
D03*
X5007000Y-6959500D02*
D03*
Y-7086500D02*
D03*
Y-7213500D02*
D03*
Y-7340500D02*
D03*
D20*
X13050000Y-2775000D02*
D03*
X13450000D02*
D03*
D21*
X9675000Y-1400000D02*
D03*
X8775000D02*
D03*
D22*
X12725167Y-1425221D02*
D03*
Y-1925221D02*
D03*
D23*
X1925221Y-4974833D02*
D03*
X2425221D02*
D03*
D24*
X12120000Y-850000D02*
D03*
X12380000D02*
D03*
D25*
X13964999Y-2750000D02*
D03*
X14185001D02*
D03*
X3560000Y-2525000D02*
D03*
X3340000D02*
D03*
X12269997Y-4249999D02*
D03*
X11930003Y-4250001D02*
D03*
X3330003Y-2900001D02*
D03*
X3669997Y-2899999D02*
D03*
X4375000Y-5700000D02*
D03*
X4035006Y-5700003D02*
D03*
X11965000Y-2875000D02*
D03*
X12185000D02*
D03*
X11200001Y-3025000D02*
D03*
X10980000D02*
D03*
X10535000Y-4675000D02*
D03*
X10315000D02*
D03*
X2940000Y-7875000D02*
D03*
X3160000D02*
D03*
X3810000Y-7875000D02*
D03*
X3590000D02*
D03*
X4215037Y-7880000D02*
D03*
X4435037D02*
D03*
X4790035D02*
D03*
X5010036D02*
D03*
X2715000Y-6275000D02*
D03*
X2935000D02*
D03*
D26*
X11314992Y-1199992D02*
D03*
X11484992D02*
D03*
X14185008Y-3050008D02*
D03*
X14015009D02*
D03*
X14014992Y-3399992D02*
D03*
X14184991D02*
D03*
X13769998Y-4424999D02*
D03*
X13599998D02*
D03*
X12135008Y-3900008D02*
D03*
X11965008D02*
D03*
X11980001Y-3550002D02*
D03*
X12150002D02*
D03*
X11110008Y-3550008D02*
D03*
X10940008D02*
D03*
X10964992Y-3924992D02*
D03*
X11134992D02*
D03*
X11135008Y-4675008D02*
D03*
X10965008D02*
D03*
X10660008Y-3050008D02*
D03*
X10490008D02*
D03*
X11135008Y-4300008D02*
D03*
X10965008D02*
D03*
X8964992Y-3899992D02*
D03*
X9134992D02*
D03*
X9785008Y-4650008D02*
D03*
X9615008D02*
D03*
X2364992Y-5499992D02*
D03*
X2534992D02*
D03*
X3400000Y-6250000D02*
D03*
X3230000D02*
D03*
X2925000Y-6825000D02*
D03*
X2755000D02*
D03*
X3239992Y-6824992D02*
D03*
X3409992D02*
D03*
X2964992Y-1174992D02*
D03*
X3134992D02*
D03*
X1635008Y-525008D02*
D03*
X1465008D02*
D03*
X12160008Y-3275008D02*
D03*
X11990008D02*
D03*
X2524997Y-5850001D02*
D03*
X2694998D02*
D03*
D27*
X13672501Y-3690500D02*
D03*
Y-3563500D02*
D03*
Y-3309500D02*
D03*
X13127499Y-3690500D02*
D03*
Y-3563500D02*
D03*
Y-3436500D02*
D03*
Y-3309500D02*
D03*
D28*
X12174999Y-1505003D02*
D03*
X12175001Y-1844997D02*
D03*
X725000Y-5735000D02*
D03*
Y-5515000D02*
D03*
D29*
X12849992Y-3610008D02*
D03*
Y-3440008D02*
D03*
D30*
X9570000Y-3548000D02*
D03*
Y-3802000D02*
D03*
X10480000Y-3548000D02*
D03*
Y-3802000D02*
D03*
D31*
X10862500Y-1900000D02*
D03*
X11087500Y-1805000D02*
D03*
Y-1995000D02*
D03*
D32*
X9694999Y-4950000D02*
D03*
X9789998Y-5175000D02*
D03*
X9599999D02*
D03*
D33*
X3625000Y-6225000D02*
D03*
X3725000D02*
D03*
X2525000Y-5275000D02*
D03*
X2425000D02*
D03*
X2725002Y-6050003D02*
D03*
X2625002D02*
D03*
X4175000Y-6000000D02*
D03*
X4275000D02*
D03*
%TF.MD5,d97cb572ca20cfc0c176d93d2ef70d6c*%
M02*
