%TF.GenerationSoftware,Altium Limited,Altium Designer,20.0.13 (296)*%
G04 Layer_Color=8388736*
%FSLAX45Y45*%
%MOMM*%
%TF.FileFunction,Soldermask,Top*%
%TF.Part,Single*%
G01*
G75*
%TA.AperFunction,ComponentPad*%
%ADD52C,2.47320*%
%ADD53R,2.47320X2.47320*%
%ADD54C,1.50320*%
%ADD55C,5.00000*%
%ADD56R,2.15320X2.15320*%
%ADD57C,2.15320*%
%ADD58C,1.72720*%
%ADD59R,1.70320X1.70320*%
%ADD60C,1.70320*%
%ADD61R,1.70320X1.70320*%
%ADD62C,1.60320*%
%ADD63C,1.85320*%
%ADD64O,1.72720X3.25120*%
%TA.AperFunction,ViaPad*%
%ADD65C,0.40320*%
%ADD66C,0.65520*%
%TA.AperFunction,SMDPad,CuDef*%
%ADD82R,8.58320X10.86320*%
%ADD83R,4.01320X2.23520*%
%ADD84R,3.20320X4.40320*%
%ADD85O,1.98320X0.62320*%
%ADD86R,2.20320X7.20320*%
%ADD87R,7.20320X2.20320*%
%ADD88R,2.54000X2.34000*%
%ADD89R,2.34000X2.54000*%
%ADD90R,3.60320X2.60320*%
%ADD91O,1.25320X0.65320*%
%ADD92R,2.54000X1.74000*%
%ADD93R,2.20320X3.70320*%
%ADD94R,2.70320X1.60320*%
%ADD95R,1.60320X2.70320*%
%ADD96R,1.20320X1.75320*%
%ADD97R,1.30000X1.90000*%
%ADD98R,1.20000X1.10000*%
%ADD99O,1.65320X0.80320*%
%ADD100R,1.90000X1.30000*%
%ADD101R,1.10000X1.20000*%
%ADD102O,2.30320X1.60320*%
%ADD103R,0.90000X0.90000*%
%ADD104R,0.90000X0.90000*%
%ADD105R,0.80320X0.70320*%
D52*
X9875000Y-360000D02*
D03*
X9125000D02*
D03*
X8375000D02*
D03*
D53*
X7375000D02*
D03*
D54*
X7250000Y-4025000D02*
D03*
Y-4225000D02*
D03*
X6425000Y-4050000D02*
D03*
Y-4250000D02*
D03*
D55*
X19650000Y-350000D02*
D03*
Y-9850000D02*
D03*
X350000Y-350000D02*
D03*
Y-9850000D02*
D03*
D56*
X725000Y-1150000D02*
D03*
X750000Y-8467000D02*
D03*
D57*
X725000Y-1658000D02*
D03*
X750000Y-8975000D02*
D03*
D58*
X2179000Y-1575000D02*
D03*
X1671000D02*
D03*
D59*
X10125000Y-1225000D02*
D03*
D60*
Y-1025000D02*
D03*
X8150000Y-1400000D02*
D03*
D61*
X7950000D02*
D03*
D62*
X15425000Y-525000D02*
D03*
Y-1025000D02*
D03*
Y-1525000D02*
D03*
Y-2025000D02*
D03*
Y-2525000D02*
D03*
Y-3025000D02*
D03*
X17925000Y-525000D02*
D03*
Y-1025000D02*
D03*
Y-1525000D02*
D03*
Y-2025000D02*
D03*
Y-2525000D02*
D03*
Y-3025000D02*
D03*
D63*
X2425000Y-700000D02*
D03*
X3425000D02*
D03*
Y-250000D02*
D03*
X2425000D02*
D03*
X5875000Y-1345000D02*
D03*
X5125000D02*
D03*
Y-275000D02*
D03*
X5875000D02*
D03*
D64*
X14133000Y-425000D02*
D03*
X13878999D02*
D03*
X13625000D02*
D03*
D65*
X19220001Y-2192500D02*
D03*
Y-5192500D02*
D03*
Y-8192500D02*
D03*
X17720001Y-2192500D02*
D03*
Y-5192500D02*
D03*
X16220001Y-2192500D02*
D03*
X15470001Y-3692500D02*
D03*
X16220001Y-5192500D02*
D03*
X14720001D02*
D03*
X13970001Y-9692500D02*
D03*
X13220000Y-5192500D02*
D03*
X12470000Y-9692500D02*
D03*
X11720000Y-5192500D02*
D03*
X10970000Y-6692500D02*
D03*
Y-9692500D02*
D03*
X10220000Y-2192500D02*
D03*
X9470000Y-3692500D02*
D03*
X10220000Y-5192500D02*
D03*
X9470000Y-6692500D02*
D03*
Y-9692500D02*
D03*
X8720000Y-2192500D02*
D03*
X7970000Y-3692500D02*
D03*
X8720000Y-5192500D02*
D03*
X7970000Y-6692500D02*
D03*
Y-9692500D02*
D03*
X7220000Y-2192500D02*
D03*
X6470000Y-3692500D02*
D03*
X7220000Y-5192500D02*
D03*
X6470000Y-6692500D02*
D03*
Y-9692500D02*
D03*
X5720000Y-2192500D02*
D03*
Y-5192500D02*
D03*
X4970000Y-9692500D02*
D03*
X4220000Y-2192500D02*
D03*
Y-5192500D02*
D03*
X3470000Y-9692500D02*
D03*
X2720000Y-2192500D02*
D03*
X1970000Y-6692500D02*
D03*
Y-9692500D02*
D03*
X1220000Y-2192500D02*
D03*
Y-5192500D02*
D03*
X470000Y-6692500D02*
D03*
X1220000Y-8192500D02*
D03*
D66*
X11975000Y-3125000D02*
D03*
X12000000Y-3100000D02*
D03*
X2895608Y-6087724D02*
D03*
X6107204Y-6331801D02*
D03*
X4400206Y-6293301D02*
D03*
X4307204Y-6031801D02*
D03*
X2975000Y-6000000D02*
D03*
Y-5525000D02*
D03*
X3295608Y-5037725D02*
D03*
X3320608Y-4712725D02*
D03*
X2345608Y-3437725D02*
D03*
X2270608Y-5312724D02*
D03*
X2625000Y-6062700D02*
D03*
X2645608Y-6537725D02*
D03*
X4995608Y-5712725D02*
D03*
X4445608Y-5862725D02*
D03*
X10745608Y-1212725D02*
D03*
X10720608Y-1237725D02*
D03*
X9570002Y-3802002D02*
D03*
X12145608Y-3862725D02*
D03*
X12140606Y-3887725D02*
D03*
X12170608Y-3562725D02*
D03*
X12145608D02*
D03*
X11045608Y-1162725D02*
D03*
X10345608Y-3987725D02*
D03*
X11095608Y-3587725D02*
D03*
X11220608Y-3012725D02*
D03*
X12205608Y-1912724D02*
D03*
X12170608Y-1912725D02*
D03*
X12195608Y-2787725D02*
D03*
X12170608D02*
D03*
X12595608Y-3137725D02*
D03*
X12570608Y-3162725D02*
D03*
X12825000Y-3100000D02*
D03*
X13120609Y-3712725D02*
D03*
X13095609D02*
D03*
X12845609Y-3662725D02*
D03*
X13695609Y-3287725D02*
D03*
X14010614Y-3257726D02*
D03*
X13195609Y-3437725D02*
D03*
X13670609Y-3312725D02*
D03*
X12795608Y-3112725D02*
D03*
X11245608Y-3012724D02*
D03*
X13145609Y-2162725D02*
D03*
X3832205Y-5681801D02*
D03*
X1895608Y-6287725D02*
D03*
X1770608Y-6637725D02*
D03*
X1620608Y-7262725D02*
D03*
X2225000Y-5675000D02*
D03*
X2725000Y-5100000D02*
D03*
X2525000Y-5150000D02*
D03*
X1570608Y-5412725D02*
D03*
X12439998Y-825000D02*
D03*
X11105614Y-3545227D02*
D03*
X10349999Y-4024999D02*
D03*
X3795608Y-7712724D02*
D03*
X3570608Y-6637725D02*
D03*
X2695608Y-5738198D02*
D03*
X3700000Y-2975000D02*
D03*
X2876601Y-5803201D02*
D03*
X2799991Y-5499991D02*
D03*
D82*
X13550000Y-1925000D02*
D03*
D83*
X14660001Y-2179000D02*
D03*
Y-1671000D02*
D03*
D84*
X3400000Y-5775000D02*
D03*
D85*
X3697000Y-6067500D02*
D03*
Y-6002500D02*
D03*
Y-5937500D02*
D03*
Y-5872500D02*
D03*
Y-5807500D02*
D03*
Y-5742500D02*
D03*
Y-5677500D02*
D03*
Y-5612500D02*
D03*
Y-5547500D02*
D03*
Y-5482500D02*
D03*
X3103000Y-6067500D02*
D03*
Y-6002500D02*
D03*
Y-5937500D02*
D03*
Y-5872500D02*
D03*
Y-5807500D02*
D03*
Y-5742500D02*
D03*
Y-5677500D02*
D03*
Y-5612500D02*
D03*
Y-5547500D02*
D03*
Y-5482500D02*
D03*
D86*
X18550000Y-9675000D02*
D03*
Y-8575000D02*
D03*
X16900008Y-9670001D02*
D03*
Y-8570001D02*
D03*
X15350011Y-9670001D02*
D03*
Y-8570001D02*
D03*
X13825015Y-9670001D02*
D03*
Y-8570001D02*
D03*
X12275018Y-9670001D02*
D03*
Y-8570001D02*
D03*
X10725021Y-9670001D02*
D03*
Y-8570001D02*
D03*
X9175024Y-9670001D02*
D03*
Y-8570001D02*
D03*
X7625027Y-9670001D02*
D03*
Y-8570001D02*
D03*
X6075030Y-9670001D02*
D03*
Y-8570001D02*
D03*
X4525033Y-9670001D02*
D03*
Y-8570001D02*
D03*
X2975036Y-9670001D02*
D03*
Y-8570001D02*
D03*
X9249961Y-6379999D02*
D03*
Y-7479999D02*
D03*
X10799958Y-6379999D02*
D03*
Y-7479999D02*
D03*
X12349954Y-6379999D02*
D03*
Y-7479999D02*
D03*
X13899951Y-6379999D02*
D03*
Y-7479999D02*
D03*
X15449948Y-6379999D02*
D03*
Y-7479999D02*
D03*
X16999945Y-6379999D02*
D03*
Y-7479999D02*
D03*
X18549942Y-6379999D02*
D03*
Y-7479999D02*
D03*
X4874988Y-4695001D02*
D03*
Y-3595001D02*
D03*
X3324992Y-4695001D02*
D03*
Y-3595001D02*
D03*
X6125033Y-6404999D02*
D03*
Y-7504999D02*
D03*
X7675030Y-6404999D02*
D03*
Y-7504999D02*
D03*
X18399973Y-5070001D02*
D03*
Y-3970001D02*
D03*
X16849976Y-5070001D02*
D03*
Y-3970001D02*
D03*
D87*
X404999Y-4549998D02*
D03*
X1504999D02*
D03*
D88*
X11200000Y-425000D02*
D03*
X10760000D02*
D03*
X11830000D02*
D03*
X12270000D02*
D03*
X1515000Y-5500000D02*
D03*
X1075000D02*
D03*
D89*
X11750000Y-1755000D02*
D03*
Y-2195000D02*
D03*
D90*
X675000Y-2550000D02*
D03*
Y-3370000D02*
D03*
D91*
X1593000Y-6909500D02*
D03*
Y-7036500D02*
D03*
Y-7163500D02*
D03*
Y-7290500D02*
D03*
X2157000Y-6909500D02*
D03*
Y-7036500D02*
D03*
Y-7163500D02*
D03*
Y-7290500D02*
D03*
X1593000Y-6284500D02*
D03*
Y-6411500D02*
D03*
Y-6538500D02*
D03*
Y-6665500D02*
D03*
X2157000Y-6284500D02*
D03*
Y-6411500D02*
D03*
Y-6538500D02*
D03*
Y-6665500D02*
D03*
X4443000Y-6309500D02*
D03*
Y-6436500D02*
D03*
Y-6563500D02*
D03*
Y-6690500D02*
D03*
X5007000Y-6309500D02*
D03*
Y-6436500D02*
D03*
Y-6563500D02*
D03*
Y-6690500D02*
D03*
X4443000Y-6959500D02*
D03*
Y-7086500D02*
D03*
Y-7213500D02*
D03*
Y-7340500D02*
D03*
X5007000Y-6959500D02*
D03*
Y-7086500D02*
D03*
Y-7213500D02*
D03*
Y-7340500D02*
D03*
D92*
X13050000Y-2775000D02*
D03*
X13450000D02*
D03*
D93*
X9675000Y-1400000D02*
D03*
X8775000D02*
D03*
D94*
X12725167Y-1425221D02*
D03*
Y-1925221D02*
D03*
D95*
X1925221Y-4974833D02*
D03*
X2425221D02*
D03*
D96*
X12120000Y-850000D02*
D03*
X12380000D02*
D03*
D97*
X13964999Y-2750000D02*
D03*
X14185001D02*
D03*
X3560000Y-2525000D02*
D03*
X3340000D02*
D03*
X12269997Y-4249999D02*
D03*
X11930003Y-4250001D02*
D03*
X3330003Y-2900001D02*
D03*
X3669997Y-2899999D02*
D03*
X4375000Y-5700000D02*
D03*
X4035006Y-5700003D02*
D03*
X11965000Y-2875000D02*
D03*
X12185000D02*
D03*
X11200001Y-3025000D02*
D03*
X10980000D02*
D03*
X10535000Y-4675000D02*
D03*
X10315000D02*
D03*
X2940000Y-7875000D02*
D03*
X3160000D02*
D03*
X3810000Y-7875000D02*
D03*
X3590000D02*
D03*
X4215037Y-7880000D02*
D03*
X4435037D02*
D03*
X4790035D02*
D03*
X5010036D02*
D03*
X2715000Y-6275000D02*
D03*
X2935000D02*
D03*
D98*
X11314992Y-1199992D02*
D03*
X11484992D02*
D03*
X14185008Y-3050008D02*
D03*
X14015009D02*
D03*
X14014992Y-3399992D02*
D03*
X14184991D02*
D03*
X13769998Y-4424999D02*
D03*
X13599998D02*
D03*
X12135008Y-3900008D02*
D03*
X11965008D02*
D03*
X11980001Y-3550002D02*
D03*
X12150002D02*
D03*
X11110008Y-3550008D02*
D03*
X10940008D02*
D03*
X10964992Y-3924992D02*
D03*
X11134992D02*
D03*
X11135008Y-4675008D02*
D03*
X10965008D02*
D03*
X10660008Y-3050008D02*
D03*
X10490008D02*
D03*
X11135008Y-4300008D02*
D03*
X10965008D02*
D03*
X8964992Y-3899992D02*
D03*
X9134992D02*
D03*
X9785008Y-4650008D02*
D03*
X9615008D02*
D03*
X2364992Y-5499992D02*
D03*
X2534992D02*
D03*
X3400000Y-6250000D02*
D03*
X3230000D02*
D03*
X2925000Y-6825000D02*
D03*
X2755000D02*
D03*
X3239992Y-6824992D02*
D03*
X3409992D02*
D03*
X2964992Y-1174992D02*
D03*
X3134992D02*
D03*
X1635008Y-525008D02*
D03*
X1465008D02*
D03*
X12160008Y-3275008D02*
D03*
X11990008D02*
D03*
X2524997Y-5850001D02*
D03*
X2694998D02*
D03*
D99*
X13672501Y-3690500D02*
D03*
Y-3563500D02*
D03*
Y-3309500D02*
D03*
X13127499Y-3690500D02*
D03*
Y-3563500D02*
D03*
Y-3436500D02*
D03*
Y-3309500D02*
D03*
D100*
X12174999Y-1505003D02*
D03*
X12175001Y-1844997D02*
D03*
X725000Y-5735000D02*
D03*
Y-5515000D02*
D03*
D101*
X12849992Y-3610008D02*
D03*
Y-3440008D02*
D03*
D102*
X9570000Y-3548000D02*
D03*
Y-3802000D02*
D03*
X10480000Y-3548000D02*
D03*
Y-3802000D02*
D03*
D103*
X10862500Y-1900000D02*
D03*
X11087500Y-1805000D02*
D03*
Y-1995000D02*
D03*
D104*
X9694999Y-4950000D02*
D03*
X9789998Y-5175000D02*
D03*
X9599999D02*
D03*
D105*
X3625000Y-6225000D02*
D03*
X3725000D02*
D03*
X2525000Y-5275000D02*
D03*
X2425000D02*
D03*
X2725002Y-6050003D02*
D03*
X2625002D02*
D03*
X4175000Y-6000000D02*
D03*
X4275000D02*
D03*
%TF.MD5,4b9ca9cb8d5a2012d2d928c0d68c6683*%
M02*
