M48
;Layer_Color=9474304
;FILE_FORMAT=4:4
METRIC,LZ
;TYPE=PLATED
T1F00S00C0.1000
T2F00S00C0.2540
T3F00S00C0.6000
T4F00S00C0.7000
T5F00S00C0.7620
T6F00S00C0.8000
T7F00S00C0.8500
T8F00S00C1.1000
T9F00S00C1.3000
T10F00S00C1.5100
%
T01
X00197Y-0096925
X00347
X00497
X00647
X00797
X00947
X01097
X01247
X01397
X01922Y-0081925
Y-0051925
X01772
X01622
X01472
X01322
X01172
X01022
X01097Y-0066925
X00947
X00797
X00647
X00722Y-0051925
X00872
X00572
X00422
X00197Y-0066925
X00047
X00122Y-0051925
Y-0081925
Y-0021925
X00272
X00422
X00572
X00722
X00872
X00797Y-0036925
X00647
X00947
X01022Y-0021925
X01622
X01547Y-0036925
X01772Y-0021925
X01922
T02
X0061072Y-0063318
X00499561Y-00571273
X00444561Y-00586273
X0043072Y-0060318
X00440021Y-0062933
X00357061Y-00663773
X00264561Y-00653773
X002625Y-0060627
X00289561Y-00608772
X002975Y-006
X0028766Y-0058032
X00269561Y-0057382
X00279999Y-00549999
X002975Y-005525
X002725Y-0051
X002525Y-00515
X00227061Y-00531272
X002225Y-005675
X00157061Y-00541273
X00189561Y-00628773
X00177061Y-00663773
X00162061Y-00726273
X00379561Y-00771272
X0038322Y-0056818
X00329561Y-00503773
X00332061Y-00471273
X0037Y-002975
X00234561Y-00343773
X00957Y-003802
X01034561Y-00398773
X01035Y-004025
X01109561Y-00358773
X01110561Y-00354523
X01122061Y-00301273
X01124561Y-00301272
X012Y-0031
X011975Y-003125
X01217061Y-00278773
X01219561
X01259561Y-00313773
X01257061Y-00316273
X01279561Y-00311273
X012825Y-0031
X01284561Y-00366273
X01309561Y-00371273
X01312061
X01319561Y-00343773
X01217061Y-00356273
X01214561
Y-00386273
X01214061Y-00388773
X01217061Y-00191273
X01220561Y-00191272
X01314561Y-00216273
X01244Y-000825
X01104561Y-00116272
X01074561Y-00121272
X01072061Y-00123772
X01369561Y-00328773
X01367061Y-00331273
X01401061Y-00325773
T03
X015425Y-003025
Y-002525
Y-002025
Y-001525
Y-001025
X017925
Y-001525
Y-002025
Y-002525
Y-003025
Y-000525
T04
X015425Y-000525
T05
X001671Y-001575
X002179
T06
X006425Y-00425
Y-00405
X00725Y-004025
Y-004225
T07
X00795Y-0014
X00815
X010125Y-001225
Y-001025
T08
X005125Y-001345
X005875
X013625Y-000425
X013879
X014133
X005875Y-000275
X005125
X003425Y-00025
Y-0007
X002425
Y-00025
T09
X00075Y-008975
Y-008467
X000725Y-001658
Y-00115
T10
X009875Y-00036
X009125
X008375
X007375
M30
